/* XPM */
static char *death_c3[] = {
/* columns rows colors chars-per-pixel */
"128 128 8 1 ",
"  c None",
". c #0E0D0E",
"X c #0A7030",
"o c #7C776F",
"O c #D2202C",
"+ c #EBA724",
"@ c #B3AAA1",
"# c #EADFD1",
/* pixels */
"                                                                                                                                ",
"                                                                                                                                ",
"                                                                                                                                ",
"                                                                                                                                ",
"                                                                                                                                ",
"                                                                                                                                ",
"                                                                                                                                ",
"                                                                                                                                ",
"                                                                                                                                ",
"                                                                                                                                ",
"                                                                                                                                ",
"                                                                                                                                ",
"                                                                                                                                ",
"                                                                                                                                ",
"                                                                                                                                ",
"                                                                                                                                ",
"                                                                                                                                ",
"                                                                                                                                ",
"                                                                                                                                ",
"                                                                                                                                ",
"                                                                                                                                ",
"                                                                                                                                ",
"                                                                                                                                ",
"                                                                                                                                ",
"                                                                                                                                ",
"                                                                                                                                ",
"                                                                                                                                ",
"                                                                                                                                ",
"                                                                                                                                ",
"                                                                                                                                ",
"                                                                                                                                ",
"                                                                                                                                ",
"                                                                                                                                ",
"                                                                                                                                ",
"                                                                                                                                ",
"                                                                                                                                ",
"                                                                                                                                ",
"                                                                                                                                ",
"                                                                                                                                ",
"                                                                                                                                ",
"                                                                                                                                ",
"                                                                                                                                ",
"                                                                                                                                ",
"                                                                                                                                ",
"                                                                                                                                ",
"                                                                                                                                ",
"                                                                                                                                ",
"                                                                                                                                ",
"                                                                                                                                ",
"                                                                                                                                ",
"                                                                                                                                ",
"                                                                                                                                ",
"                                                                                                                                ",
"                                                                                                                                ",
"                                                                                                                                ",
"                                                                                                                                ",
"                                                                                                                                ",
"                                                                                                                                ",
"                                                                                                                                ",
"                                                                                                                                ",
"                                                                                                                                ",
"                                                                                                                                ",
"                                                                                                                                ",
"                                                                                                                                ",
"                                                            ............................                                        ",
"                                                            ............................                                        ",
"                                                            ............................                                        ",
"                                                            ............................                                        ",
"                                                        ........OOOOOOOOOOOOOOOOOOOO........                                    ",
"                                                        ........OOOOOOOOOOOOOOOOOOOO........                                    ",
"                                                        ........OOOOOOOOOOOOOOOOOOOO........                                    ",
"                                                        ........OOOOOOOOOOOOOOOOOOOO........                                    ",
"                                                        ....OOOO........OOOOOOOOOOOOOOOO....                                    ",
"                                                        ....OOOO........OOOOOOOOOOOOOOOO....                                    ",
"                                                        ....OOOO........OOOOOOOOOOOOOOOO....                                    ",
"                                                        ....OOOO........OOOOOOOOOOOOOOOO....                                    ",
"                                                        ....................OOOOOOOO....................                        ",
"                                                        ....................OOOOOOOO....................                        ",
"                                                        ....................OOOOOOOO....................                        ",
"                                                        ....................OOOOOOOO....................                        ",
"                                                                ....############oooooooooooooooooooo....                        ",
"                                                                ....############oooooooooooooooooooo....                        ",
"                                                                ....############oooooooooooooooooooo....                        ",
"                                                                ....############oooooooooooooooooooo....                        ",
"                                                ....................####....................................                    ",
"                                                ....................####....................................                    ",
"                                                ....................####....................................                    ",
"                                                ....................####....................................                    ",
"                                            ........XXXXXXXXXXXX....oooo....############@@@@@@@@@@@@@@@@....                    ",
"                                            ........XXXXXXXXXXXX....oooo....############@@@@@@@@@@@@@@@@....                    ",
"                                            ........XXXXXXXXXXXX....oooo....############@@@@@@@@@@@@@@@@....                    ",
"                                            ........XXXXXXXXXXXX....oooo....############@@@@@@@@@@@@@@@@....                    ",
"                                            ....++++XXXXXXXXXXXX....oooo....####....@@@@....@@@@....@@@@....                    ",
"                                            ....++++XXXXXXXXXXXX....oooo....####....@@@@....@@@@....@@@@....                    ",
"                                            ....++++XXXXXXXXXXXX....oooo....####....@@@@....@@@@....@@@@....                    ",
"                                            ....++++XXXXXXXXXXXX....oooo....####....@@@@....@@@@....@@@@....                    ",
"                                            ....++++++++++++++++....oooo....@@@@....@@@@....@@@@....@@@@....                    ",
"                                            ....++++++++++++++++....oooo....@@@@....@@@@....@@@@....@@@@....                    ",
"                                            ....++++++++++++++++....oooo....@@@@....@@@@....@@@@....@@@@....                    ",
"                                            ....++++++++++++++++....oooo....@@@@....@@@@....@@@@....@@@@....                    ",
"                                            ................++++....oooo....@@@@....@@@@....@@@@....@@@@....                    ",
"                                            ................++++....oooo....@@@@....@@@@....@@@@....@@@@....                    ",
"                                            ................++++....oooo....@@@@....@@@@....@@@@....@@@@....                    ",
"                                            ................++++....oooo....@@@@....@@@@....@@@@....@@@@....                    ",
"                                            ....@@@@oooo....++++....oooo....@@@@@@@@@@@@@@@@@@@@@@@@@@@@....                    ",
"                                            ....@@@@oooo....++++....oooo....@@@@@@@@@@@@@@@@@@@@@@@@@@@@....                    ",
"                                            ....@@@@oooo....++++....oooo....@@@@@@@@@@@@@@@@@@@@@@@@@@@@....                    ",
"                                            ....@@@@oooo....++++....oooo....@@@@@@@@@@@@@@@@@@@@@@@@@@@@....                    ",
"                                            ................................................................                    ",
"                                            ................................................................                    ",
"                                            ................................................................                    ",
"                                            ................................................................                    ",
"                                                                                                                                ",
"                                                                                                                                ",
"                                                                                                                                ",
"                                                                                                                                ",
"                                                                                                                                ",
"                                                                                                                                ",
"                                                                                                                                ",
"                                                                                                                                ",
"                                                                                                                                ",
"                                                                                                                                ",
"                                                                                                                                ",
"                                                                                                                                ",
"                                                                                                                                ",
"                                                                                                                                ",
"                                                                                                                                ",
"                                                                                                                                "
};
