/* XPM */
static char *moving_right_r3_c4[] = {
/* columns rows colors chars-per-pixel */
"128 128 8 1 ",
"  c None",
". c #0E0D0E",
"X c #0A7030",
"o c #7C776F",
"O c #D2202C",
"+ c #EBA724",
"@ c #B3AAA1",
"# c #EADFD1",
/* pixels */
"                                                                                                                                ",
"                                                                                                                                ",
"                                                                                                                                ",
"                                                                                                                                ",
"                                                                                                                                ",
"                                                                                                                                ",
"                                                                                                                                ",
"                                                                                                                                ",
"                                                                                                                                ",
"                                                                                                                                ",
"                                                                                                                                ",
"                                                                                                                                ",
"                                                                                                                                ",
"                                                                                                                                ",
"                                                                                                                                ",
"                                                                                                                                ",
"                                                                                                                                ",
"                                                                                                                                ",
"                                                                                                                                ",
"                                                                                                                                ",
"                                                                                                                                ",
"                                                                                                                                ",
"                                                                                                                                ",
"                                                                                                                                ",
"                                                                                                                                ",
"                                                                                                                                ",
"                                                                                                                                ",
"                                                                                                                                ",
"                                                                                                                                ",
"                                                                                                                                ",
"                                                                                                                                ",
"                                                                                                                                ",
"                                                                                                                                ",
"                                                                                                                                ",
"                                                                                                                                ",
"                                                                                                                                ",
"                                                                                                                                ",
"                                                                                                                                ",
"                                                                                                                                ",
"                                                                                                                                ",
"                                        ............................                                                            ",
"                                        ............................                                                            ",
"                                        ............................                                                            ",
"                                        ............................                                                            ",
"                                    ........OOOOOOOOOOOOOOOOOOOO........                                                        ",
"                                    ........OOOOOOOOOOOOOOOOOOOO........                                                        ",
"                                    ........OOOOOOOOOOOOOOOOOOOO........                                                        ",
"                                    ........OOOOOOOOOOOOOOOOOOOO........                                                        ",
"                                    ....OOOO........OOOOOOOOOOOOOOOO....                                                        ",
"                                    ....OOOO........OOOOOOOOOOOOOOOO....                                                        ",
"                                    ....OOOO........OOOOOOOOOOOOOOOO....                                                        ",
"                                    ....OOOO........OOOOOOOOOOOOOOOO....                                                        ",
"                                    ....................OOOOOOOO....................                                            ",
"                                    ....................OOOOOOOO....................                                            ",
"                                    ....................OOOOOOOO....................                                            ",
"                                    ....................OOOOOOOO....................                                            ",
"                                            ....############oooooooooooooooooooo....                                            ",
"                                            ....############oooooooooooooooooooo....                                            ",
"                                            ....############oooooooooooooooooooo....                                            ",
"                                            ....############oooooooooooooooooooo....                                            ",
"                                            ....####....................................                                        ",
"                                            ....####....................................                                        ",
"                                            ....####....................................                                        ",
"                                            ....####....................................                                        ",
"                                            ....oooo....############@@@@@@@@@@@@@@@@....                                        ",
"                                            ....oooo....############@@@@@@@@@@@@@@@@....                                        ",
"                                            ....oooo....############@@@@@@@@@@@@@@@@....                                        ",
"                                            ....oooo....############@@@@@@@@@@@@@@@@....                                        ",
"                                            ....oooo....####....@@@@....@@@@....@@@@....                                        ",
"                                            ....oooo....####....@@@@....@@@@....@@@@....                                        ",
"                                            ....oooo....####....@@@@....@@@@....@@@@....                                        ",
"                                            ....oooo....####....@@@@....@@@@....@@@@....                                        ",
"                                            ....oooo....@@@@....@@@@....@@@@....@@@@....                                        ",
"                                            ....oooo....@@@@....@@@@....@@@@....@@@@....                                        ",
"                                            ....oooo....@@@@....@@@@....@@@@....@@@@....                                        ",
"                                            ....oooo....@@@@....@@@@....@@@@....@@@@....                                        ",
"                                            ....oooo....@@@@....@@@@....@@@@....@@@@....                                        ",
"                                            ....oooo....@@@@....@@@@....@@@@....@@@@....                                        ",
"                                            ....oooo....@@@@....@@@@....@@@@....@@@@....                                        ",
"                                            ....oooo....@@@@....@@@@....@@@@....@@@@....                                        ",
"                                            ....oooo....@@@@@@@@@@@@@@@@@@@@@@@@@@@@....                                        ",
"                                            ....oooo....@@@@@@@@@@@@@@@@@@@@@@@@@@@@....                                        ",
"                                            ....oooo....@@@@@@@@@@@@@@@@@@@@@@@@@@@@....                                        ",
"                                            ....oooo....@@@@@@@@@@@@@@@@@@@@@@@@@@@@....                                        ",
"                                        ................................................                                        ",
"                                        ................................................                                        ",
"                                        ................................................                                        ",
"                                        ................................................                                        ",
"                                ............XXXXXXXXXXXX++++++++++++++++++++++++....                                            ",
"                                ............XXXXXXXXXXXX++++++++++++++++++++++++....                                            ",
"                                ............XXXXXXXXXXXX++++++++++++++++++++++++....                                            ",
"                                ............XXXXXXXXXXXX++++++++++++++++++++++++....                                            ",
"                                ....XXXXXXXXXXXXXXXXXXXX++++............................                                        ",
"                                ....XXXXXXXXXXXXXXXXXXXX++++............................                                        ",
"                                ....XXXXXXXXXXXXXXXXXXXX++++............................                                        ",
"                                ....XXXXXXXXXXXXXXXXXXXX++++............................                                        ",
"                                ....XXXXXXXXXXXXXXXX++++++++....oooooooooooooooo@@@@....                                        ",
"                                ....XXXXXXXXXXXXXXXX++++++++....oooooooooooooooo@@@@....                                        ",
"                                ....XXXXXXXXXXXXXXXX++++++++....oooooooooooooooo@@@@....                                        ",
"                                ....XXXXXXXXXXXXXXXX++++++++....oooooooooooooooo@@@@....                                        ",
"                                ....++++++++++++++++++++........oooooooo@@@@@@@@@@@@....                                        ",
"                                ....++++++++++++++++++++........oooooooo@@@@@@@@@@@@....                                        ",
"                                ....++++++++++++++++++++........oooooooo@@@@@@@@@@@@....                                        ",
"                                ....++++++++++++++++++++........oooooooo@@@@@@@@@@@@....                                        ",
"                                ........................................................                                        ",
"                                ........................................................                                        ",
"                                ........................................................                                        ",
"                                ........................................................                                        ",
"                                        ............                                                                            ",
"                                        ............                                                                            ",
"                                        ............                                                                            ",
"                                        ............                                                                            ",
"                                                                                                                                ",
"                                                                                                                                ",
"                                                                                                                                ",
"                                                                                                                                ",
"                                                                                                                                ",
"                                                                                                                                ",
"                                                                                                                                ",
"                                                                                                                                ",
"                                                                                                                                ",
"                                                                                                                                ",
"                                                                                                                                ",
"                                                                                                                                ",
"                                                                                                                                ",
"                                                                                                                                ",
"                                                                                                                                ",
"                                                                                                                                "
};
