/* XPM */
static char *player[] = {
"32 32 3 1",
". c #90EE90",
"# c #FFFFFF",
"@ c #FFFF00",
"................................",
"................................",
"................................",
"................................",
"................................",
"................................",
"................................",
"................................",
"................................",
"............@@@@@@@@............",
"............@@@@@@@@............",
"............@@@@@@@@............",
"............@@@@@@@@............",
"............########............",
"............########............",
"............########............",
"............########............",
"............########............",
"............########............",
"............########............",
"............########............",
"............@@@@@@@@............",
"............@@@@@@@@............",
"............@@@@@@@@............",
"............@@@@@@@@............",
"................................",
"................................",
"................................",
"................................",
"................................",
"................................",
"................................"
};
