/* XPM */
static char *frame_r6_c2[] = {
/* columns rows colors chars-per-pixel */
"32 32 4 1 ",
"  c None",
". c #0E0D0E",
"X c #D2202C",
"o c #EADFD1",
/* pixels */
"                                ",
"                                ",
"                                ",
"                                ",
"                                ",
"                                ",
"                                ",
"                                ",
"                                ",
"                                ",
"        ...                     ",
"        .X......                ",
"        ..XXXXX..               ",
"         ...XXXX.               ",
"          ...XX.....            ",
"          .oooXXXXX.            ",
"          .o.........           ",
"          .X.oooXXXX.           ",
"          .X.o.X.X.X.           ",
"          .X.X.X.X.X.           ",
"          .X.X.X.X.X.           ",
"          .X.XXXXXXX.           ",
"         ............           ",
"         .XXXXXXXXX.            ",
"         .XXXX......            ",
"         .XXXX.XXXX.            ",
"         .XXXX.XXXX.            ",
"         ...........            ",
"                                ",
"                                ",
"                                ",
"                                "
};
