/* XPM */
static char *k_3[] = {
/* columns rows colors chars-per-pixel */
"32 32 2 1 ",
"  c None",
". c black",
/* pixels */
"                                ",
"                                ",
"                                ",
"                                ",
"                                ",
"                                ",
"                                ",
"                                ",
"                                ",
"                                ",
"                                ",
"        .......     ..     ..  .",
"        ........    ..     ..  .",
"        ...  ....   ..     ..  .",
"        ..    ...   ..     ..  .",
"        ..    ...   ..     ..  .",
"        .........   ..     ..  .",
"        ........    ..     ..  .",
"        ... ....    ...    ..  .",
"        ..   ...    ...   ...  .",
"        ..   ...    .........  .",
"        ..    ...    .......   .",
"        ..    ...     .....    .",
"                                ",
"                                ",
"                                ",
"                                ",
"                                ",
"                                ",
"                                ",
"                                ",
"                                "
};
