/* XPM */
static char *hit_c2[] = {
/* columns rows colors chars-per-pixel */
"128 128 4 1 ",
"  c None",
". c #0E0D0E",
"X c #D2202C",
"o c #EADFD1",
/* pixels */
"                                                                                                                                ",
"                                                                                                                                ",
"                                                                                                                                ",
"                                                                                                                                ",
"                                                                                                                                ",
"                                                                                                                                ",
"                                                                                                                                ",
"                                                                                                                                ",
"                                                                                                                                ",
"                                                                                                                                ",
"                                                                                                                                ",
"                                                                                                                                ",
"                                                                                                                                ",
"                                                                                                                                ",
"                                                                                                                                ",
"                                                                                                                                ",
"                                                                                                                                ",
"                                                                                                                                ",
"                                                                                                                                ",
"                                                                                                                                ",
"                                                                                                                                ",
"                                                                                                                                ",
"                                                                                                                                ",
"                                                                                                                                ",
"                                                                                                                                ",
"                                                                                                                                ",
"                                                                                                                                ",
"                                                                                                                                ",
"                                                                                                                                ",
"                                                                                                                                ",
"                                                                                                                                ",
"                                                                                                                                ",
"                                                                                                                                ",
"                                                                                                                                ",
"                                                                                                                                ",
"                                                                                                                                ",
"                                                                                                                                ",
"                                                                                                                                ",
"                                                                                                                                ",
"                                                                                                                                ",
"                                ............                                                                                    ",
"                                ............                                                                                    ",
"                                ............                                                                                    ",
"                                ............                                                                                    ",
"                                ....XXXX........................                                                                ",
"                                ....XXXX........................                                                                ",
"                                ....XXXX........................                                                                ",
"                                ....XXXX........................                                                                ",
"                                ........XXXXXXXXXXXXXXXXXXXX........                                                            ",
"                                ........XXXXXXXXXXXXXXXXXXXX........                                                            ",
"                                ........XXXXXXXXXXXXXXXXXXXX........                                                            ",
"                                ........XXXXXXXXXXXXXXXXXXXX........                                                            ",
"                                    ............XXXXXXXXXXXXXXXX....                                                            ",
"                                    ............XXXXXXXXXXXXXXXX....                                                            ",
"                                    ............XXXXXXXXXXXXXXXX....                                                            ",
"                                    ............XXXXXXXXXXXXXXXX....                                                            ",
"                                        ............XXXXXXXX....................                                                ",
"                                        ............XXXXXXXX....................                                                ",
"                                        ............XXXXXXXX....................                                                ",
"                                        ............XXXXXXXX....................                                                ",
"                                        ....ooooooooooooXXXXXXXXXXXXXXXXXXXX....                                                ",
"                                        ....ooooooooooooXXXXXXXXXXXXXXXXXXXX....                                                ",
"                                        ....ooooooooooooXXXXXXXXXXXXXXXXXXXX....                                                ",
"                                        ....ooooooooooooXXXXXXXXXXXXXXXXXXXX....                                                ",
"                                        ....oooo....................................                                            ",
"                                        ....oooo....................................                                            ",
"                                        ....oooo....................................                                            ",
"                                        ....oooo....................................                                            ",
"                                        ....XXXX....ooooooooooooXXXXXXXXXXXXXXXX....                                            ",
"                                        ....XXXX....ooooooooooooXXXXXXXXXXXXXXXX....                                            ",
"                                        ....XXXX....ooooooooooooXXXXXXXXXXXXXXXX....                                            ",
"                                        ....XXXX....ooooooooooooXXXXXXXXXXXXXXXX....                                            ",
"                                        ....XXXX....oooo....XXXX....XXXX....XXXX....                                            ",
"                                        ....XXXX....oooo....XXXX....XXXX....XXXX....                                            ",
"                                        ....XXXX....oooo....XXXX....XXXX....XXXX....                                            ",
"                                        ....XXXX....oooo....XXXX....XXXX....XXXX....                                            ",
"                                        ....XXXX....XXXX....XXXX....XXXX....XXXX....                                            ",
"                                        ....XXXX....XXXX....XXXX....XXXX....XXXX....                                            ",
"                                        ....XXXX....XXXX....XXXX....XXXX....XXXX....                                            ",
"                                        ....XXXX....XXXX....XXXX....XXXX....XXXX....                                            ",
"                                        ....XXXX....XXXX....XXXX....XXXX....XXXX....                                            ",
"                                        ....XXXX....XXXX....XXXX....XXXX....XXXX....                                            ",
"                                        ....XXXX....XXXX....XXXX....XXXX....XXXX....                                            ",
"                                        ....XXXX....XXXX....XXXX....XXXX....XXXX....                                            ",
"                                        ....XXXX....XXXXXXXXXXXXXXXXXXXXXXXXXXXX....                                            ",
"                                        ....XXXX....XXXXXXXXXXXXXXXXXXXXXXXXXXXX....                                            ",
"                                        ....XXXX....XXXXXXXXXXXXXXXXXXXXXXXXXXXX....                                            ",
"                                        ....XXXX....XXXXXXXXXXXXXXXXXXXXXXXXXXXX....                                            ",
"                                    ................................................                                            ",
"                                    ................................................                                            ",
"                                    ................................................                                            ",
"                                    ................................................                                            ",
"                                    ....XXXXXXXXXXXXXXXXXXXXXXXXXXXXXXXXXXXX....                                                ",
"                                    ....XXXXXXXXXXXXXXXXXXXXXXXXXXXXXXXXXXXX....                                                ",
"                                    ....XXXXXXXXXXXXXXXXXXXXXXXXXXXXXXXXXXXX....                                                ",
"                                    ....XXXXXXXXXXXXXXXXXXXXXXXXXXXXXXXXXXXX....                                                ",
"                                    ....XXXXXXXXXXXXXXXX........................                                                ",
"                                    ....XXXXXXXXXXXXXXXX........................                                                ",
"                                    ....XXXXXXXXXXXXXXXX........................                                                ",
"                                    ....XXXXXXXXXXXXXXXX........................                                                ",
"                                    ....XXXXXXXXXXXXXXXX....XXXXXXXXXXXXXXXX....                                                ",
"                                    ....XXXXXXXXXXXXXXXX....XXXXXXXXXXXXXXXX....                                                ",
"                                    ....XXXXXXXXXXXXXXXX....XXXXXXXXXXXXXXXX....                                                ",
"                                    ....XXXXXXXXXXXXXXXX....XXXXXXXXXXXXXXXX....                                                ",
"                                    ....XXXXXXXXXXXXXXXX....XXXXXXXXXXXXXXXX....                                                ",
"                                    ....XXXXXXXXXXXXXXXX....XXXXXXXXXXXXXXXX....                                                ",
"                                    ....XXXXXXXXXXXXXXXX....XXXXXXXXXXXXXXXX....                                                ",
"                                    ....XXXXXXXXXXXXXXXX....XXXXXXXXXXXXXXXX....                                                ",
"                                    ............................................                                                ",
"                                    ............................................                                                ",
"                                    ............................................                                                ",
"                                    ............................................                                                ",
"                                                                                                                                ",
"                                                                                                                                ",
"                                                                                                                                ",
"                                                                                                                                ",
"                                                                                                                                ",
"                                                                                                                                ",
"                                                                                                                                ",
"                                                                                                                                ",
"                                                                                                                                ",
"                                                                                                                                ",
"                                                                                                                                ",
"                                                                                                                                ",
"                                                                                                                                ",
"                                                                                                                                ",
"                                                                                                                                ",
"                                                                                                                                "
};
