/* XPM */
static char *moving_left_r3_c6[] = {
/* columns rows colors chars-per-pixel */
"128 128 8 1 ",
"  c None",
". c #0E0D0E",
"X c #0A7030",
"o c #7C776F",
"O c #D2202C",
"+ c #EBA724",
"@ c #B3AAA1",
"# c #EADFD1",
/* pixels */
"                                                                                                                                ",
"                                                                                                                                ",
"                                                                                                                                ",
"                                                                                                                                ",
"                                                                                                                                ",
"                                                                                                                                ",
"                                                                                                                                ",
"                                                                                                                                ",
"                                                                                                                                ",
"                                                                                                                                ",
"                                                                                                                                ",
"                                                                                                                                ",
"                                                                                                                                ",
"                                                                                                                                ",
"                                                                                                                                ",
"                                                                                                                                ",
"                                                                                                                                ",
"                                                                                                                                ",
"                                                                                                                                ",
"                                                                                                                                ",
"                                                                                                                                ",
"                                                                                                                                ",
"                                                                                                                                ",
"                                                                                                                                ",
"                                                                                                                                ",
"                                                                                                                                ",
"                                                                                                                                ",
"                                                                                                                                ",
"                                                                                                                                ",
"                                                                                                                                ",
"                                                                                                                                ",
"                                                                                                                                ",
"                                                                                                                                ",
"                                                                                                                                ",
"                                                                                                                                ",
"                                                                                                                                ",
"                                                                                                                                ",
"                                                                                                                                ",
"                                                                                                                                ",
"                                                                                                                                ",
"                                                                                ............                                    ",
"                                                                                ............                                    ",
"                                                                                ............                                    ",
"                                                                                ............                                    ",
"                                                            ........................OOOO....                                    ",
"                                                            ........................OOOO....                                    ",
"                                                            ........................OOOO....                                    ",
"                                                            ........................OOOO....                                    ",
"                                                        ........OOOOOOOOOOOOOOOOOOOO........                                    ",
"                                                        ........OOOOOOOOOOOOOOOOOOOO........                                    ",
"                                                        ........OOOOOOOOOOOOOOOOOOOO........                                    ",
"                                                        ........OOOOOOOOOOOOOOOOOOOO........                                    ",
"                                                        ....OOOOOOOOOOOOOOOO............                                        ",
"                                                        ....OOOOOOOOOOOOOOOO............                                        ",
"                                                        ....OOOOOOOOOOOOOOOO............                                        ",
"                                                        ....OOOOOOOOOOOOOOOO............                                        ",
"                                            ....................OOOOOOOO............                                            ",
"                                            ....................OOOOOOOO............                                            ",
"                                            ....................OOOOOOOO............                                            ",
"                                            ....................OOOOOOOO............                                            ",
"                                            ....oooooooooooooooooooo############....                                            ",
"                                            ....oooooooooooooooooooo############....                                            ",
"                                            ....oooooooooooooooooooo############....                                            ",
"                                            ....oooooooooooooooooooo############....                                            ",
"                                        ....................................####....                                            ",
"                                        ....................................####....                                            ",
"                                        ....................................####....                                            ",
"                                        ....................................####....                                            ",
"                                        ....@@@@@@@@@@@@@@@@############....oooo....                                            ",
"                                        ....@@@@@@@@@@@@@@@@############....oooo....                                            ",
"                                        ....@@@@@@@@@@@@@@@@############....oooo....                                            ",
"                                        ....@@@@@@@@@@@@@@@@############....oooo....                                            ",
"                                        ....@@@@....@@@@....@@@@....####....oooo....                                            ",
"                                        ....@@@@....@@@@....@@@@....####....oooo....                                            ",
"                                        ....@@@@....@@@@....@@@@....####....oooo....                                            ",
"                                        ....@@@@....@@@@....@@@@....####....oooo....                                            ",
"                                        ....@@@@....@@@@....@@@@....@@@@....oooo....                                            ",
"                                        ....@@@@....@@@@....@@@@....@@@@....oooo....                                            ",
"                                        ....@@@@....@@@@....@@@@....@@@@....oooo....                                            ",
"                                        ....@@@@....@@@@....@@@@....@@@@....oooo....                                            ",
"                                        ....@@@@....@@@@....@@@@....@@@@....oooo....                                            ",
"                                        ....@@@@....@@@@....@@@@....@@@@....oooo....                                            ",
"                                        ....@@@@....@@@@....@@@@....@@@@....oooo....                                            ",
"                                        ....@@@@....@@@@....@@@@....@@@@....oooo....                                            ",
"                                        ....@@@@@@@@@@@@@@@@@@@@@@@@@@@@....oooo....                                            ",
"                                        ....@@@@@@@@@@@@@@@@@@@@@@@@@@@@....oooo....                                            ",
"                                        ....@@@@@@@@@@@@@@@@@@@@@@@@@@@@....oooo....                                            ",
"                                        ....@@@@@@@@@@@@@@@@@@@@@@@@@@@@....oooo....                                            ",
"                                        ................................................                                        ",
"                                        ................................................                                        ",
"                                        ................................................                                        ",
"                                        ................................................                                        ",
"                                            ....++++++++++++++++++++++++XXXXXXXXXXXX....                                        ",
"                                            ....++++++++++++++++++++++++XXXXXXXXXXXX....                                        ",
"                                            ....++++++++++++++++++++++++XXXXXXXXXXXX....                                        ",
"                                            ....++++++++++++++++++++++++XXXXXXXXXXXX....                                        ",
"                                            ........................++++XXXXXXXXXXXX........                                    ",
"                                            ........................++++XXXXXXXXXXXX........                                    ",
"                                            ........................++++XXXXXXXXXXXX........                                    ",
"                                            ........................++++XXXXXXXXXXXX........                                    ",
"                                            ....oooooooooooooooo....++++XXXXXXXXXXXXXXXX....                                    ",
"                                            ....oooooooooooooooo....++++XXXXXXXXXXXXXXXX....                                    ",
"                                            ....oooooooooooooooo....++++XXXXXXXXXXXXXXXX....                                    ",
"                                            ....oooooooooooooooo....++++XXXXXXXXXXXXXXXX....                                    ",
"                                            ....oooooooooooooooo....++++++++++++++++++++....                                    ",
"                                            ....oooooooooooooooo....++++++++++++++++++++....                                    ",
"                                            ....oooooooooooooooo....++++++++++++++++++++....                                    ",
"                                            ....oooooooooooooooo....++++++++++++++++++++....                                    ",
"                                            ................................................                                    ",
"                                            ................................................                                    ",
"                                            ................................................                                    ",
"                                            ................................................                                    ",
"                                                                                                                                ",
"                                                                                                                                ",
"                                                                                                                                ",
"                                                                                                                                ",
"                                                                                                                                ",
"                                                                                                                                ",
"                                                                                                                                ",
"                                                                                                                                ",
"                                                                                                                                ",
"                                                                                                                                ",
"                                                                                                                                ",
"                                                                                                                                ",
"                                                                                                                                ",
"                                                                                                                                ",
"                                                                                                                                ",
"                                                                                                                                "
};
