/* XPM */
static char *exit_door[] = {
"32 32 3 1",
". c #90EE90",
"# c #8B4513",
"@ c #654321",
"................................",
"................................",
"................................",
"................................",
"................................",
"................................",
"................................",
"................................",
"................................",
"............########............",
"............#......#............",
"............#......#............",
"............#......#............",
"............#..@@..#............",
"............#..@@..#............",
"............#..@@..#............",
"............#..@@..#............",
"............#..@@..#............",
"............#..@@..#............",
"............#..@@..#............",
"............#..@@..#............",
"............#......#............",
"............#......#............",
"............#......#............",
"............########............",
"................................",
"................................",
"................................",
"................................",
"................................",
"................................",
"................................"
};
