/* XPM */
static char *collectible[] = {
"32 32 3 1",
". c #90EE90",
"# c #FFD700",
"@ c #FFA500",
"................................",
"................................",
"................................",
"................................",
"................................",
"................................",
"................................",
"................................",
"................................",
"............########............",
"............########............",
"............########............",
"............########............",
"............@@@@@@@@............",
"............@@@@@@@@............",
"............@@@@@@@@............",
"............@@@@@@@@............",
"............@@@@@@@@............",
"............@@@@@@@@............",
"............@@@@@@@@............",
"............@@@@@@@@............",
"............########............",
"............########............",
"............########............",
"............########............",
"................................",
"................................",
"................................",
"................................",
"................................",
"................................",
"................................"
};
