/* XPM */
static char *door[] = {
/* columns rows colors chars-per-pixel */
"64 64 191 2 ",
"   c #331F3B",
".  c #34203B",
"X  c #34213B",
"o  c #35213B",
"O  c #36233B",
"+  c #36243B",
"@  c #38273B",
"#  c #39273B",
"$  c #3A263B",
"%  c #3B263B",
"&  c #39263D",
"*  c #3B273C",
"=  c #3A273D",
"-  c #3C273C",
";  c #38283B",
":  c #39283B",
">  c #3A283B",
",  c #3A293B",
"<  c #3C2C39",
"1  c #3C283C",
"2  c #3D283C",
"3  c #40263C",
"4  c #40273C",
"5  c #41273D",
"6  c #41283D",
"7  c #41293D",
"8  c #42293D",
"9  c #422B3D",
"0  c #412E3C",
"q  c #422E3C",
"w  c #432E3C",
"e  c #432F3F",
"r  c #452C3D",
"t  c #442D3D",
"y  c #462E3E",
"u  c #482F3E",
"i  c #43303C",
"p  c #41303F",
"a  c #42303F",
"s  c #44303C",
"d  c #44313C",
"f  c #45313C",
"g  c #45303D",
"h  c #45313D",
"j  c #46313D",
"k  c #47323C",
"l  c #48333C",
"z  c #49333C",
"x  c #48333D",
"c  c #49333D",
"v  c #48303E",
"b  c #4A333E",
"n  c #48343D",
"m  c #49343D",
"M  c #4A343D",
"N  c #4A363D",
"B  c #4B363D",
"V  c #49353E",
"C  c #4A353E",
"Z  c #4A363E",
"A  c #4A363F",
"S  c #503B3E",
"D  c #513B3F",
"F  c #513D3F",
"G  c #523C3F",
"H  c #533E3F",
"J  c #543C3F",
"K  c #543F3F",
"L  c #563E3F",
"P  c #402C40",
"I  c #402D40",
"U  c #432F42",
"Y  c #462F41",
"T  c #433140",
"R  c #463140",
"E  c #443240",
"W  c #463241",
"Q  c #443042",
"!  c #453143",
"~  c #473442",
"^  c #473542",
"/  c #473244",
"(  c #4A3640",
")  c #4B3740",
"_  c #493542",
"`  c #483444",
"'  c #493545",
"]  c #4B3840",
"[  c #4C3841",
"{  c #4E3941",
"}  c #4F3A41",
"|  c #4D3B43",
" . c #4F3A42",
".. c #4F3B42",
"X. c #4E3A43",
"o. c #4E3E45",
"O. c #4F3C4C",
"+. c #4F3C4D",
"@. c #4F3D4D",
"#. c #503B42",
"$. c #503C43",
"%. c #513D43",
"&. c #523D43",
"*. c #523D44",
"=. c #533F45",
"-. c #503E46",
";. c #543F45",
":. c #513E4E",
">. c #574240",
",. c #544242",
"<. c #554342",
"1. c #554442",
"2. c #554046",
"3. c #584340",
"4. c #5B4340",
"5. c #5B4441",
"6. c #5C4440",
"7. c #5D4541",
"8. c #5D4641",
"9. c #5D4741",
"0. c #5A4645",
"q. c #5E4842",
"w. c #5F4842",
"e. c #52454B",
"r. c #52464B",
"t. c #53474C",
"y. c #584349",
"u. c #584449",
"i. c #5A464A",
"p. c #58464E",
"a. c #59474F",
"s. c #544A4E",
"d. c #564A4F",
"f. c #554253",
"g. c #574454",
"h. c #554C50",
"j. c #564C50",
"k. c #584F53",
"l. c #5B5658",
"z. c #5B5759",
"x. c #5D585A",
"c. c #5D595A",
"v. c #5D5B5C",
"b. c #5E5D5E",
"n. c #5F5F5F",
"m. c #614D45",
"M. c #624E46",
"N. c #604C4F",
"B. c #614D4F",
"V. c #635047",
"C. c #635147",
"Z. c #645147",
"A. c #645248",
"S. c #655248",
"D. c #655348",
"F. c #614D50",
"G. c #624E50",
"H. c #624F50",
"J. c #634F50",
"K. c #634F51",
"L. c #60545A",
"P. c #62565B",
"I. c #606060",
"U. c #606160",
"Y. c #616161",
"T. c #626262",
"R. c #636363",
"E. c #636463",
"W. c #646464",
"Q. c #686868",
"!. c #696969",
"~. c #6B6B6B",
"^. c #6E6C6D",
"/. c #737373",
"(. c #818081",
"). c #828182",
"_. c #848484",
"`. c #868686",
"'. c #898687",
"]. c #8A8889",
"[. c #8A898A",
"{. c #8F8F8F",
"}. c #959595",
"|. c #969696",
" X c #999999",
".X c #9A9A9A",
"XX c #9B9B9B",
"oX c #9E9B9D",
"OX c #A09E9F",
"+X c #A4A3A4",
"@X c #A7A7A7",
/* pixels */
"< < < 1.D.D.D.D.D.D.D.D.D.D.D.D.D.D.D.D.D.D.D.D.D.D.D.D.D.D.D.D.D.D.D.D.D.D.D.D.D.D.D.D.D.D.D.D.D.D.D.D.D.D.D.D.D.m.7.4.7.V.D.D.",
"< < < ,.Z.V.V.V.V.V.V.V.V.V.V.V.V.V.V.V.V.Z.V.V.V.V.V.V.V.V.V.V.V.V.V.V.V.V.V.V.V.V.V.V.V.Z.V.V.V.V.V.V.V.V.V.V.V.m.7.4.7.Z.D.D.",
"< < < S 7.7.7.7.7.7.7.7.7.7.7.7.7.7.7.7.7.7.7.7.7.7.7.7.7.7.7.7.7.7.7.7.7.7.7.7.7.7.7.7.7.7.7.7.7.7.7.7.7.7.7.7.7.7.7.7.7.Z.D.D.",
"< < < F q.q.5.J J J J J J J J J J J J J J J J J J J J J J J J J J J J J J J J J J J J J J J J J J J J J J J J J J J 7.7.7.D.D.D.",
"< < < ,.D.D.0.8 8 8 8 8 8 8 8 8 8 8 8 8 8 8 8 8 8 8 8 8 8 8 8 8 8 8 8 8 8 8 8 8 8 8 8 8 8 8 8 8 8 8 8 8 8 8 8 8 8 x 3.7.7.C.D.D.",
"< < < ,.D.D.0.8 8 x F F F F F F F F F F F F F F F F F F F F F F F F F F F F F F F F F F F F F F F F F F F S t 8 8 u 3.7.7.C.D.D.",
"< < < ,.D.D.0.8 5 x ,.,.,.,.,.,.,.,.,.,.>.>.,.,.,.>.,.,.,.,.,.,.,.,.>.,.,.,.,.,.,.,.,.,.>.>.,.,.,.,.3.3.3.,.t 8 8 u 3.7.7.V.D.D.",
"< < < ,.D.D.0.8 8 t m m m m m m m m m m m B m m B B m m m m m m m m m m m m m m m m m m m B m m m m J 3.3.,.t 8 8 u 3.7.7.V.D.D.",
"< < < 1.D.D.0.8 8 8 x m m m m m m m m m m m m m m m m m m m m m m m m m m m m m m m m m m m m m m m J 3.3.,.t 5 5 u 4.7.7.V.D.D.",
"< < < ,.D.D.0.8 8 8 m m m m m m m m m m m m m m m m m m m m m m m m m m m m m m m m m m m m m m m m J 3.3.,.t 8 8 u 4.7.7.V.D.D.",
"< < < ,.D.D.0.8 8 8 m m m m m g w w w w w w w w w w w w w w w w w w w w w w w w w w w w w w g m m m J 3.3.,.t 8 5 u 4.7.7.V.D.D.",
"< < < ,.D.D.0.8 8 8 m m m m m $   X X X X X X X X X X X X X X X X X X X X X X X X X X X X X 2 m m m J 3.3.,.t 8 5 u 4.7.7.D.D.D.",
"< < < 1.D.D.0.8 8 8 m m m m m _ ' ' = X + + + + + + + + + + + + + + + + + + + + + + + X X . - m m m J 3.3.,.t 8 5 u 3.7.7.Z.D.D.",
"< < < ,.D.D.0.8 8 8 m m m m m i.K.N.a , , , , , , , , , , , , , , , , , , , , , , , , $ X X 2 m m m J 3.3.,.t 8 5 u 3.7.7.Z.D.D.",
"< < < ,.D.D.0.8 8 8 m m m m m i.K.N._ g g g g g g g g g g g g g g g g g g g g g g w , $ X . - m m m J 5.3.,.t 8 5 u 3.7.7.Z.D.D.",
"< < < 1.D.D.0.8 8 8 m m m m m i.K.N.{ m m m m m m m m m m m m m m m m m m m m m m g , $ X X 2 m m m J 5.3.,.t 8 5 u 3.7.7.Z.D.D.",
"< < < ,.D.D.0.8 8 8 m m m m m i.K.N.{ m m m m m m m m m m m m m m m m m m m m m m g , $ X . - m m m J 3.3.,.t 8 8 u 3.7.7.C.D.D.",
"< < < ,.D.D.0.8 8 8 m m m m m i.K.N.{ m m m m m m m m m m m m m m m m m m m m m m g , $ X . - m m m J 3.3.,.t 5 8 u 3.7.7.C.D.D.",
"< < < ,.D.D.0.8 8 8 m m m m m i.K.N.{ m m m m m m m m m m m m m m m m m m m m m m g , $ X . 2 m m m J 3.3.,.t 8 8 u 3.7.7.V.D.D.",
"< < < ,.D.D.0.8 8 8 m m m m m i.K.N.{ m m m m m m m m m m m m m m m m m m m m m m g , $ X . 2 m m m J 3.3.,.t 8 5 u 3.7.7.V.D.D.",
"< < < 1.D.D.0.8 8 8 m m m m m i.K.N.{ m m m m m m m m m m m m m m m m m m m m m m g , $ X . 2 m m m J 5.3.,.t 8 5 u 3.7.7.V.D.D.",
"< < < ,.D.D.0.8 8 8 m m m m m i.K.N.{ m m m m m m m m m m m m m m m m m m m m m m g , $ X . 2 m m m J 5.3.,.t 8 5 u 3.7.7.V.D.D.",
"< < < ,.D.D.0.8 8 8 m m m m m i.K.N.{ m m m m m m m m m m m m m m m m m m m m m m g , $ X . - m m m J 3.3.,.t 5 5 u 3.7.7.V.D.D.",
"< < < ,.D.D.0.8 8 8 m m m m m i.K.N.{ m m m m m m m m m m m m m m m m m m m m m m g , $ X . - m m m J 3.3.,.t 5 5 u 3.7.7.C.D.D.",
"< < < 1.D.D.0.8 8 8 m m m m m i.K.N.{ m m m m m m m m m m m m m m m m m m m m m m g , $ X   - m m m F 3.3.,.t 8 5 u 4.7.7.Z.D.D.",
"< < < ,.D.D.0.8 8 8 m m m m m i.K.N.{ m m m m m m m m m m m m m m m m m m m m m m g , $ X   - m m m F 3.3.,.t 8 5 u 3.7.7.Z.D.D.",
"< < < ,.D.D.0.8 8 8 m m m m m i.K.N.{ x x x x x m m m m m m x m x x x x x x x m m a , $ X   $ m m m F 5.3.,.t 8 5 u 4.7.7.Z.D.D.",
"< < < 1.D.D.0.8 8 8 m m m m m i.K.N.2.%.%.%.%.%.%.%.%.%.%.%.%.%.%.%.%.%.%.%.%.%.%.{ ~ ~ / I / m m m J 5.3.,.t 8 5 u 3.7.7.Z.D.D.",
"< < < ,.D.D.0.8 8 8 m m m m m i.K.K.K.K.K.K.K.K.K.K.K.K.K.K.K.K.K.K.K.K.K.K.K.K.K.K.K.K.K.K.i.m m m J 3.3.,.t 8 8 u 3.7.7.C.D.D.",
"< < < ,.D.D.0.8 8 8 m m m m m { %.%.%.%.%.%.%.%.%.%.%.%.%.%.%.%.%.%.%.%.%.%.%.%.%.%.%.%.%.%.{ m m m J 3.3.,.t 8 8 u 3.7.7.C.D.D.",
"< < < ,.D.D.0.8 8 8 g x x m x x x x x x x x x x x x x x x x x x x x x x x x x x x x m m m m m m m m J 3.3.,.t 8 8 u 3.7.7.V.D.D.",
"< < < ,.D.D.0.8 8 Y a.a.-.{ { ] m m m m m m m m m m m m m m m m m m m m m m m m m m m m m m m m m m J 3.3.,.t 8 8 u 3.7.7.V.D.D.",
"< < < 1.D.D.0.8 5 f.oXOX^.v.b.s.m m m m m m m m m m m m m m m m m m m m m m m m m m m m m m m m m m F 3.3.,.t 8 8 u 4.7.7.V.D.D.",
"< < < ,.D.D.0.8 5 g.+X@X/.T.E.k.m m m m m m m m m m m m m m m m m m m m m m m m m m m m m m m m m m F 3.3.,.t 8 8 u 4.7.7.V.D.D.",
"< < < ,.D.D.0.8 5 :.[.{.|..X.X'.c.z.z.z.z.r.m m m m m m m m m m m m m m m m m m m m m m m m m m m m J 5.3.,.t 8 5 u 4.7.7.V.D.D.",
"< < < ,.D.D.0.8 5 O.(.`.|..X.X[.c.z.z.z.z.r.m m m m m m m m m m m m m m m m m m m m m m m m m m m m J 5.3.,.t 8 5 u 3.7.7.D.D.D.",
"< < < 1.D.D.0.8 5 O.(.`.~.T.W.k.m m m m m m m m m m m m m m m m m m m m m m m m m m m m m m m m m m J 3.3.,.t 8 5 u 3.7.7.Z.D.D.",
"< < < ,.D.D.0.8 5 O.(.`.~.b.T.h.m m m m m m m m m m m m m m m m m m m m m m m m m m m m m m m m m m J 3.3.,.t 8 5 u 3.7.7.Z.D.D.",
"< < < ,.D.D.0.8 5 O.(.`.~.I.T.h.m m m m m m m m m m m m m m m m m m m m m m m m m m m m m m m m m m J 3.3.,.t 8 5 u 3.7.7.Z.D.D.",
"< < < 1.D.D.0.8 5 / P.P.s.r.t.o.m m m m m m m m m m m m m m m m m m m m m m m m m m m m m m m m m m J 3.3.,.t 8 5 u 3.7.7.Z.D.D.",
"< < < ,.D.D.0.8 8 8 g x x x x m m m m m m m m m m m m m m m m m m m m m m m m m m m m m m m m m m m F 3.3.,.t 8 8 u 3.7.7.C.D.D.",
"< < < ,.D.D.0.8 8 8 m m m m m g g g g g g g g g g g g g g g g g g g g g g g g g g g g g g g g m m m F 3.3.,.t 8 8 u 3.7.7.C.D.D.",
"< < < ,.D.D.0.8 8 8 x m m m m $ X X X X X X X X X X X X X X X X X X X X X X X X X X X X X X 2 m m m J 5.3.,.t 8 8 u 3.7.7.V.D.D.",
"< < < ,.D.D.0.8 8 8 x m m m m / / / = X X X X X X + X X X X X X X + X X X X X X X X X X X X 2 m m m J 5.3.,.t 8 5 u 3.7.7.V.D.D.",
"< < < 1.D.D.0.8 8 8 m m m m m i.K.N.a , , , , , , , , , , , , , , , , , , , , , , , , $ X X 2 m m m J 5.3.,.t 5 5 u 3.7.7.V.D.D.",
"< < < ,.D.D.0.8 8 8 m m m m m i.K.N._ g g g g g g g g g g g g g g g g g g g g g g w , $ X X 2 m m m J 3.3.,.t 5 5 u 3.7.7.V.D.D.",
"< < < ,.D.D.0.8 8 8 m m m m m i.K.N.{ m m m m m m m m m m m m m m m m m m m m m m g , $ X X 2 m m m J 3.3.,.t 5 5 u 3.7.7.V.D.D.",
"< < < ,.D.D.0.8 8 8 m m m m m i.K.N.{ m m m m m m m m m m m m m m m m m m m m m m g , $ X X - m m m J 3.3.,.t 5 5 u 3.7.7.C.D.D.",
"< < < 1.D.D.0.8 8 8 m m m m m i.K.N.{ m m m m m m m m m m m m m m m m m m m m m m g , $ X . 2 m m m F 3.3.,.t 8 5 u 4.7.7.Z.D.D.",
"< < < ,.D.D.0.8 8 8 m m m m m i.K.N.{ m m m m m m m m m m m m m m m m m m m m m m g , , X . 2 m m m F 3.3.,.t 8 5 u 3.7.7.Z.D.D.",
"< < < ,.D.D.0.8 8 8 m m m m m i.K.N.{ m m m m m m m m m m m m m m m m m m m m m m g , $ X . 2 m m m F 3.3.,.t 8 5 u 4.7.7.Z.D.D.",
"< < < 1.D.D.0.8 8 8 m m m m m i.K.N.{ m m m m m m m m m m m m m m m m m m m m m m g , $ X . 2 m m m F 3.3.,.t 8 5 u 3.7.7.Z.D.D.",
"< < < ,.D.D.0.8 8 8 m m m m m i.K.N.{ m m m m m m m m m m m m m m m m m m m m m m g , $ X X - m m m J 3.3.,.t 8 8 u 3.7.7.C.D.D.",
"< < < ,.D.D.0.8 8 8 m m m m m i.K.N.{ m m m m m m m m m m m m m m m m m m m m m m g , $ X X - m m m J 3.3.,.t 8 8 u 3.7.7.C.D.D.",
"< < < ,.D.D.0.8 8 8 m m m m m i.K.N.{ m m m m m m m m m m m m m m m m m m m m m m g , $ X X - m m m J 3.3.,.t 8 8 u 3.7.7.V.D.D.",
"< < < ,.D.D.0.8 8 8 m m m m m i.K.N.{ m m m m m m m m m m m m m m m m m m m m m m g , $ X X - m m m J 3.3.,.t 8 8 u 3.7.7.V.D.D.",
"< < < 1.D.D.0.8 8 8 m m m m m i.K.N.{ m m m m m m m m m m m m m m m m m m m m m m g , $ X X - m m m J 5.3.,.t 5 5 u 4.7.7.V.D.D.",
"< < < ,.D.D.0.8 8 8 m m m m m i.K.N.{ x m m m m m m m m m m m m m m m m m m m m m a , $ X   = m m m J 5.3.,.t 8 8 u 4.7.7.V.D.D.",
"< < < ,.D.D.0.8 8 8 m m m m m i.K.N.-.{ { { { { { { { { { { { { { { { { { { { { { { / T I I w m m m J 3.3.,.t 8 5 u 4.7.7.V.D.D.",
"< < < ,.D.D.0.8 8 8 m m m m m i.K.K.K.N.K.K.K.K.K.N.K.K.K.K.K.K.K.K.K.K.K.K.K.K.N.N.N.N.N.K.y.m m m J 3.3.,.t 8 5 u 4.7.7.D.D.D.",
"< < < 1.D.D.0.8 8 8 m m m m m %.;.;.;.;.;.;.;.;.;.;.;.;.;.;.;.;.;.;.;.;.;.;.;.;.;.;.;.;.;.;.#.m m m F 3.3.,.t 8 5 u 3.7.7.Z.D.D.",
"< < < ,.D.D.0.8 8 8 m m m m m m m m m x m x x m m m m m m x x x m m m x m x x m m m m m m x m m m m F 3.3.,.t 8 5 u 3.7.7.Z.D.D.",
"< < < ,.D.D.0.8 8 8 m m m m m m m m m m m m m m m m m m m m m m m m m m m m m m m m m m m m m m m m F 5.3.,.t 8 5 u 3.7.7.Z.D.D.",
"< < < 1.D.D.0.8 8 8 m m m m m m m m m m m m m m m m m m m m m m m m m m m m m m m m m m m m m m m m J 5.3.,.t 8 5 u 3.7.7.Z.D.D."
};
