/* XPM */
static char *door[] = {
/* columns rows colors chars-per-pixel */
"64 64 68 1 ",
"  c #0559AC",
". c #0659AD",
"X c #065AAD",
"o c #085BAE",
"O c #095BAE",
"+ c #095CAE",
"@ c #0A5CAE",
"# c #0B5DAE",
"$ c #0C5DAF",
"% c #0D5EAF",
"& c #0F5FB0",
"* c #1060B0",
"= c #1160B0",
"- c #1161B0",
"; c #1261B0",
": c #1262B1",
"> c #1362B1",
", c #1463B1",
"< c #1563B1",
"1 c #1F6AB5",
"2 c #3176BB",
"3 c #4B87C4",
"4 c #4D88C4",
"5 c #4E89C4",
"6 c #4F8AC5",
"7 c #538DC6",
"8 c #5B92C9",
"9 c #5C92C9",
"0 c #5C93C9",
"q c #5D93C9",
"w c #5F94CA",
"e c #6196CB",
"r c #6296CB",
"t c #6297CB",
"y c #6398CC",
"u c #79A6D3",
"i c #7AA7D3",
"p c #7BA7D3",
"a c #88B0D8",
"s c #8AB1D8",
"d c #8DB3D9",
"f c #8EB3D9",
"g c #9ABCDE",
"h c #9EBFDF",
"j c #A8C5E2",
"k c #A9C6E3",
"l c #B0CAE5",
"z c #B0CBE5",
"x c #B2CBE5",
"c c #B4CDE6",
"v c #BED3E9",
"b c #BED4E9",
"n c #BFD4EA",
"m c #C1D5EA",
"M c #CEDEEF",
"N c #D0E0EF",
"B c #D0E0F0",
"V c #E0EAF5",
"C c #F5F8FC",
"Z c #F7FAFC",
"A c #F7FAFD",
"S c #F8FAFD",
"D c #FAFCFD",
"F c #FBFCFE",
"G c #FCFDFE",
"H c #FDFEFE",
"J c #FEFEFF",
"K c #FFFFFF",
/* pixels */
"%%%%%%%%@sKKKZ5@%%%%%%%%%%%%%%%%%%%%%%%%%%%%%%%%%%%%%%%%%%%%%%%%",
"%%%%%%%%@sKKKZ5@%%%%%%%%%%%%%%%%%%%%%%%%%%%%%%%%%%%%%%%%%%%%%%%%",
"%%%%%%%%@sKKKZ5@%%%%%%%%%%%%%%%%%%%%%%%%%%%%%%%%%%%%%%%%%%%%%%%%",
"%%%%%%%%@sKKKZ5@%%%%%%%%%%%%%%%%%%%%%%%%%%%%%%%%%%%%%%%%%%%%%%%%",
"%%%%%%%%@sKKKZ5@%%%%%%%%%%%%%%%%%%%%%%%%%%%%%%%%%%%%%%%%%%%%%%%%",
"%%%%%%%%@sKKKZ5@%%%%%%%%%%%%%%%%%%%%%%%%%%%%%%%%%%%%%%%%%%%%%%%%",
"%%%%%%%%@sKKKZ5@%%%%%%%;1111111111111111111111111111111111111111",
"%%%%%%%%@sKKKZ5@%%%%%%@5MBBBBBBBBBBBBBBBBBBBBBBBBBBBBBBBBBBBBBBB",
"%%%%%%%%@sKKKZ5@%%%%%%O9KKKKKKKKKKKKKKKKKKKKKKKKKKKKKKKKKKKKKKKK",
"%%%%%%%%@sKKKZ5@%%%%%%O9KKKKKKKKKKKKKKKKKKKKKKKKKKKKKKKKKKKKKKKK",
"%%%%%%%%@sKKKZ5@%%%%%%O9KKKKKKKKKKKKKKKKKKKKKKKKKKKKKKKKKKKKKKKK",
"%%%%%%%%@sKKKZ5@%%%%%%O9KKKKKKKKKKKKKKKKKKKKKKKKKKKKKKKKKKKKKKKK",
"%%%%%%%%@sKKKZ5O%%%%%%O9KKKKKKKKKKKKKKKKKKKKKKKKKKKKKKKKKKKKKKKK",
"<<<<<<<<;fKKKZ7;<<<<<<;wZSSSSSSSSSSSSSSSSSSSSSSSSSSSSSSSSSSSSSSS",
"nnnnnnnnnVKKKKNvnnnnnnmg5555555555555555555555555555555555555555",
"KKKKKKKKKKKKKKKKKKKKKKKx%OOOOOOOOOOOOOOOOOOOOOOOOOOOOOOOOOOOOOOO",
"KKKKKKKKKKKKKKKKKKKKKKKx;%%%%%%%%%%%%%%%%%%%%%%%%%%%%%%%%%%%%%%%",
"KKKKKKKKKKKKKKKKKKKKKKKx;%%%%%%%%%%%%%%%%%%%%%%%%%%%%%%%%%%%%%%%",
"KKKKKKKKKKKKKKKKKKKKKKKx;%%%%%%%%%%%%%%%%%%%%%%%%%%%%%%%%%%%%%%%",
"KKKKKKKKKKKKKKKKKKKKKKKx;%%%%%%%%%%%%%%%%%%%%%%%%%%%%%%%%%%%%%%%",
"KKKKKKKKKKKKKKKKKKKKKKKl;&&&&&&&&&&&&&&&&&&&&&&&&&&&&&&&&&&&&&&&",
"yyyyyyyyrcKKKDfryyyyyyrikkkkkkkkkkkkkkkkkkkkkkkkkkkkkkkkkkkkkkkk",
"OOOOOOOO sKKKZ3 OOOOOO 8KKKKKKKKKKKKKKKKKKKKKKKKKKKKKKKKKKKKKKKK",
"%%%%%%%%@sKKKZ5@%%%%%%O9KKKKKKKKKKKKKKKKKKKKKKKKKKKKKKKKKKKKKKKK",
"%%%%%%%%@sKKKZ5@%%%%%%O9KKKKKKKKKKKKKKKKKKKKKKKKKKKKKKKKKKKKKKKK",
"%%%%%%%%@sKKKZ5@%%%%%%O9KKKKKKKKKKKKKKKKKKKKKKKKKKKKKKKKKKKKKKKK",
"%%%%%%%%@sKKKZ5@%%%%%%O9KKKKKKKKKKKKKKKKKKKKKKKKKKKKKKKKKKKKKKKK",
"%%%%%%%%@sKKKZ5@%%%%%%O9KKKKKKKKKKKKKKKKKKKKKKKKKKKKKKKKKKKKKKKK",
"%%%%%%%%@sKKKZ5@%%%%%%@2iiiiiiiiiiiiiiiiiiiiiiiiiiiiiiiiiiiiiiii",
"%%%%%%%%@sKKKZ5@%%%%%%%%@@@@OO@@@@@@@@@@@@@@@@@@@@@@@@@@@@@@@@@@",
"%%%%%%%%@sKKKZ5@%%%%%%%%%%%%%%%%%%%%%%%%%%%%%%%%%%%%%%%%%%%%%%%%",
"%%%%%%%%@sKKKZ5@%%%%%%%%%%%%%%%%%%%%%%%%%%%%%%%%%%%%%%%%%%%%%%%%",
"%%%%%%%%@sKKKZ5@%%%%%%%%%%%%%%%%%%%%%%%%%%%%%%%%%%%%%%%%%%%%%%%%",
"%%%%%%%%@sKKKZ5@%%%%%%%%%%%%%%%%%%%%%%%%%%%%%%%%%%%%%%%%%%%%%%%%",
"@@@@@@@@ sKKKZ3 @@@@@@@@@@@@@@@@@@@@@@@@@@@@@@@@@@@@@@@@@@@@@@@@",
"iiiiiiiiinKKKDhiiiiiiiiiiiiiiiiiiiiiiiiiiiiiiiiiiiiiiiiiiiiiiiii",
"KKKKKKKKKKKKKKKKKKKKKKKKKKKKKKKKKKKKKKKKKKKKKKKKKKKKKKKKKKKKKKKK",
"KKKKKKKKKKKKKKKKKKKKKKKKKKKKKKKKKKKKKKKKKKKKKKKKKKKKKKKKKKKKKKKK",
"KKKKKKKKKKKKKKKKKKKKKKKKKKKKKKKKKKKKKKKKKKKKKKKKKKKKKKKKKKKKKKKK",
"KKKKKKKKKKKKKKKKKKKKKKKKKKKKKKKKKKKKKKKKKKKKKKKKKKKKKKKKKKKKKKKK",
"KKKKKKKKKKKKKKKKKKKKKKKKKKKKKKKKKKKKKKKKKKKKKKKKKKKKKKKKKKKKKKKK",
"KKKKKKKKKKKKKKKKKKKKKKKKKKKKKKKKKKKKKKKKKKKKKKKKKKKKKKKKKKKKKKKK",
"kkkkkkkkkkkkkkkkkkkkkkkkkkkkkkkkkkkkkkkkkkkkkkkkkkkkkkkkkkkkkkkk",
"&&&&&&&&&&&&&&&&&&&&&&&&&&&&&&&&&&&&&&&&&&&&&&&&&&&&&&&&&&&&&&&&",
"%%%%%%%%%%%%%%%%%%%%%%%%%%%%%%%%%%%%%%%%%%%%%%%%%%%%%%%%%%%%%%%%",
"%%%%%%%%%%%%%%%%%%%%%%%%%%%%%%%%%%%%%%%%%%%%%%%%%%%%%%%%%%%%%%%%",
"%%%%%%%%%%%%%%%%%%%%%%%%%%%%%%%%%%%%%%%%%%%%%%%%%%%%%%%%%%%%%%%%",
"%%%%%%%%%%%%%%%%%%%%%%%%%%%%%%%%%%%%%%%%%%%%%%%%%%%%%%%%%%%%%%%%",
"OOOOOOOOOOOOOOOOOOOOOOOOOOOOOOOOOOOOOOOOOOOOOOOOOOOOOOOOOOOOOOOO",
"5555555555555555555555555555555555555555555555555555555555555555",
"SSSSSSSSSSSSSSSSSSSSSSSSSSSSSSSSSSSSSSSSSSSSSSSSSSSSSSSSSSSSSSSS",
"KKKKKKKKKKKKKKKKKKKKKKKKKKKKKKKKKKKKKKKKKKKKKKKKKKKKKKKKKKKKKKKK",
"KKKKKKKKKKKKKKKKKKKKKKKKKKKKKKKKKKKKKKKKKKKKKKKKKKKKKKKKKKKKKKKK",
"KKKKKKKKKKKKKKKKKKKKKKKKKKKKKKKKKKKKKKKKKKKKKKKKKKKKKKKKKKKKKKKK",
"KKKKKKKKKKKKKKKKKKKKKKKKKKKKKKKKKKKKKKKKKKKKKKKKKKKKKKKKKKKKKKKK",
"KKKKKKKKKKKKKKKKKKKKKKKKKKKKKKKKKKKKKKKKKKKKKKKKKKKKKKKKKKKKKKKK",
"BBBBBBBBBBBBBBBBBBBBBBBBBBBBBBBBBBBBBBBBBBBBBBBBBBBBBBBBBBBBBBBB",
"1111111111111111111111111111111111111111111111111111111111111111",
"%%%%%%%%%%%%%%%%%%%%%%%%%%%%%%%%%%%%%%%%%%%%%%%%%%%%%%%%%%%%%%%%",
"%%%%%%%%%%%%%%%%%%%%%%%%%%%%%%%%%%%%%%%%%%%%%%%%%%%%%%%%%%%%%%%%",
"%%%%%%%%%%%%%%%%%%%%%%%%%%%%%%%%%%%%%%%%%%%%%%%%%%%%%%%%%%%%%%%%",
"%%%%%%%%%%%%%%%%%%%%%%%%%%%%%%%%%%%%%%%%%%%%%%%%%%%%%%%%%%%%%%%%",
"%%%%%%%%%%%%%%%%%%%%%%%%%%%%%%%%%%%%%%%%%%%%%%%%%%%%%%%%%%%%%%%%",
"%%%%%%%%%%%%%%%%%%%%%%%%%%%%%%%%%%%%%%%%%%%%%%%%%%%%%%%%%%%%%%%%"
};
