/* XPM */
static char *player[] = {
/* columns rows colors chars-per-pixel */
"64 64 228 2 ",
"   c #040301",
".  c #090604",
"X  c #0C0906",
"o  c #0F0C09",
"O  c #110E09",
"+  c #100C07",
"@  c #14110C",
"#  c #19150E",
"$  c #1D1A13",
"%  c #1A1610",
"&  c #221D16",
"*  c #221F18",
"=  c #25221A",
"-  c #2B251C",
";  c #292218",
":  c #32291E",
">  c #382A15",
",  c #342C21",
"<  c #392E23",
"1  c #3C3125",
"2  c #3B352A",
"3  c #2D2A21",
"4  c #453A2D",
"5  c #4A3C2E",
"6  c #443628",
"7  c #4C3E30",
"8  c #443E31",
"9  c #563C2A",
"0  c #573A1B",
"q  c #5A4315",
"w  c #4B4436",
"e  c #534334",
"r  c #5C4A3B",
"t  c #574838",
"y  c #5D402B",
"u  c #654C39",
"i  c #69513E",
"p  c #78533D",
"a  c #63442B",
"s  c #786233",
"d  c #6C5516",
"f  c #5C4D42",
"g  c #5C5746",
"h  c #645444",
"j  c #6B5544",
"k  c #635D4B",
"l  c #6A5A49",
"z  c #735643",
"x  c #735946",
"c  c #745C49",
"v  c #7B5E4A",
"b  c #7B5945",
"n  c #614F40",
"m  c #67624E",
"M  c #7D614E",
"N  c #74624F",
"B  c #6A6652",
"V  c #6C6A56",
"C  c #6F6E59",
"Z  c #666551",
"A  c #776854",
"S  c #73725D",
"D  c #7C715B",
"F  c #6F705A",
"G  c #797763",
"H  c #7B7965",
"J  c #7D7D69",
"K  c #767562",
"L  c #896D31",
"P  c #937933",
"I  c #8B5B4D",
"U  c #825D49",
"Y  c #945B52",
"T  c #854E41",
"R  c #83624E",
"E  c #8C604E",
"W  c #846552",
"Q  c #8B6552",
"!  c #856A55",
"~  c #8A6A56",
"^  c #8D6D59",
"/  c #856C5A",
"(  c #926E5A",
")  c #976858",
"_  c #8A745C",
"`  c #94725D",
"'  c #99745F",
"]  c #8D774A",
"[  c #A16C5F",
"{  c #867A65",
"}  c #957461",
"|  c #9B7662",
" . c #9D7964",
".. c #967B67",
"X. c #A27C66",
"o. c #A47E69",
"O. c #AC7C6A",
"+. c #A77465",
"@. c #B27C6D",
"#. c #B57D73",
"$. c #A36D62",
"%. c #7F806B",
"&. c #9D8339",
"*. c #A08438",
"=. c #998551",
"-. c #AA9355",
";. c #A68F50",
":. c #BBA25D",
">. c #83836D",
",. c #89856C",
"<. c #8B866C",
"1. c #978969",
"2. c #848571",
"3. c #8A8A74",
"4. c #8D8E79",
"5. c #8A8671",
"6. c #968E72",
"7. c #8F907A",
"8. c #8E9076",
"9. c #93947D",
"0. c #98977A",
"q. c #A5816B",
"w. c #AB826C",
"e. c #B2846E",
"r. c #B4886F",
"t. c #B19D64",
"y. c #AD8671",
"u. c #AC8975",
"i. c #B38571",
"p. c #B48A74",
"a. c #BA8C75",
"s. c #BC8E79",
"d. c #B98678",
"f. c #A79B77",
"g. c #B5927C",
"h. c #BC927B",
"j. c #BA957A",
"k. c #A59467",
"l. c #B7A573",
"z. c #C3937C",
"x. c #C9967E",
"c. c #C08D78",
"v. c #C4B078",
"b. c #C3AF77",
"n. c #949681",
"m. c #969881",
"M. c #9A9C84",
"N. c #9C9E89",
"B. c #BC9782",
"V. c #A49D86",
"C. c #9EA18A",
"Z. c #9EA186",
"A. c #A6A586",
"S. c #A2A48C",
"D. c #A6A88D",
"F. c #ABAA8B",
"G. c #B8AB86",
"H. c #AEB28B",
"J. c #B5B88C",
"K. c #A4A691",
"L. c #A6A992",
"P. c #AAAC95",
"I. c #ACAC9A",
"U. c #AFB09A",
"Y. c #B5B393",
"T. c #B3B39B",
"R. c #B9B799",
"E. c #BAB99A",
"W. c #BAB697",
"Q. c #B2AD94",
"!. c #BABAA3",
"~. c #B5B6A0",
"^. c #C49681",
"/. c #C99781",
"(. c #C39A84",
"). c #CB9A85",
"_. c #C59E89",
"`. c #CC9E88",
"'. c #D19E89",
"]. c #D29C85",
"[. c #C28783",
"{. c #CBA18B",
"}. c #C6A48D",
"|. c #D4A28D",
" X c #DBA58D",
".X c #C4B588",
"XX c #CBA993",
"oX c #DAA691",
"OX c #D4AA95",
"+X c #DBAA95",
"@X c #DCAE9A",
"#X c #D4A893",
"$X c #C3B998",
"%X c #DCB19D",
"&X c #D7B09A",
"*X c #E1AC95",
"=X c #E2B29D",
"-X c #E1A78F",
";X c #DDB5A1",
":X c #C3BDA4",
">X c #E3B6A1",
",X c #E4B9A5",
"<X c #E7BDAA",
"1X c #BEC295",
"2X c #BDC08F",
"3X c #C4C59A",
"4X c #C7C89C",
"5X c #D4C597",
"6X c #C9C3A7",
"7X c #CBC9A6",
"8X c #D4CCA9",
"9X c #CED0A6",
"0X c #D4D2AA",
"qX c #CDCBB3",
"wX c #D2CDB4",
"eX c #DAD6B9",
"rX c #DAD5B5",
"tX c #CFD0BA",
"yX c #E0DAB6",
"uX c #E2DCBA",
"iX c #E6E2BC",
"pX c #D5D7C4",
"aX c #D7D9C5",
"sX c #E2DFC2",
"dX c #E6E2C3",
"fX c #E8E5CA",
"gX c #EAE9D2",
"hX c #E8E7D0",
/* pixels */
"H H J >.>.>.2.2.3.3.3.4.4.4.4.7.7.4.4.4.3.5.>.C t , % X .           . # 2 m >.9.m.M.m.m.M.M.M.M.m.m.m.9.m.m.m.9.9.7.4.3.,.>.G G ",
"2.2.3.3.4.4.4.7.9.9.9.9.9.n.m.m.m.n.9.9.4.G w - o . .                   . @ , g >.M.S.S.S.S.S.S.S.Z.Z.M.S.S.C.M.m.n.9.4.3.>.J G ",
"7.7.9.9.9.n.m.m.M.M.M.M.M.C.M.M.M.M.M.3.g - X                               . X = g 4.S.S.S.D.S.S.S.S.S.D.L.D.S.C.M.m.9.4.3.>.H ",
"m.m.m.m.M.M.Z.C.C.C.S.S.S.S.S.S.S.N.%.8 @ .                                       o 2 K Z.D.D.D.D.D.S.D.P.P.P.L.S.S.N.m.9.4.>.{ ",
"M.M.M.M.C.S.S.S.S.S.S.S.S.S.S.S.M.V , @ O + .             . X . . . . X o O O X X   . = V N.D.D.D.D.D.L.I.U.I.I.P.K.S.M.m.9.,.,.",
"C.C.C.C.S.S.S.S.D.D.D.L.S.S.S.M.g = % $ % @ O @ @ O O @ O @ $ & * $ $ $ $ $ % % % @ X X & k M.D.D.L.L.P.T.R.U.I.I.P.L.S.S.0.6.1.",
"S.S.C.S.S.K.L.L.L.L.L.L.L.L.M.B - $ & $ $ $ $ $ $ $ % & & = , , 3 = = = = ; * & & $ % O . $ k N.L.L.L.P.T.~.~.~.T.R.R.R.Y.F.f.k.",
"S.S.S.K.L.L.L.L.P.P.L.L.L.C.C 1 ; ; * & & * $ & $ $ * 3 , - = & = = = = = = = = = = & % + . $ g N.P.P.P.R.!.!.!.!.!.!.R.R.Y.l.f.",
"K.K.K.L.L.P.P.P.P.P.P.P.S.S 2 : - ; ; * * = = = - , 2 8 7 1 : - - - - - - - : < 1 1 1 , & O . # k S.P.I.E.!.!.!.!.!.!.R.R.$XG.l.",
"K.K.K.L.L.P.P.P.P.P.P.P.>.8 , < 1 1 < : - , 1 5 e j A A j e 5 5 5 e t r i h z M W W M x u < @ . = G P.T.~.!.!.!.!.!.!.E.$X$X.Xv.",
"S.S.S.K.L.L.L.P.P.P.P.n.r < 5 h v b z j x M ^  .w.s.^.h.q.W N ! ` X.w.w.i.i.i.i.i.i.w.o.' z : O . 2 M.U.T.!.!.!.!.!.!.$X$X$X.Xv.",
"N.N.N.N.C.S.S.S.S.K.C.Z 1 5 W w.a.a.a.s.z./.'.oX X XoXoX).p.u.s.z.x.x.x.x.x.z.a.a.p.p.i.e. .i & X $ K P.P.U.T.~.~.T.R.R.$X$X.Xv.",
"9.9.n.n.m.M.M.M.N.C.,.4 < M i.x.x.x.x.x.). X X-X X X X X|.'.].].].].].].).x.x.z.a.a.a.r.e.w.( 7 % o 8 m.S.S.L.P.I.I.Y.Y.Y..Xv.v.",
"3.3.3.4.4.7.7.9.9.4.f , e o.z.x.x.x.x.).]. X-X-X X XoX*X+X+XoX|.|.|.'.].].).).x.z.c.s.a.r.e.o.x : O $ S M.n.M.N.S.S.F.F.G.G.b.b.",
"J J J %.>.2.2.2.3.G 2 < W h.).)./.).].]. X-X-X-X-X-X*X=X=X=X=X+XoX X XoX X|.].).z.z.z.a.r.e.w.^ 7 % @ w 3.3.3.4.7.9.M.A.G.l.l.l.",
"C S S S K G G G J k , 5 q._.{.|.|.|.|.oX*X-X-X*X=X=X=X=X=X=X=X=X=X=X=X=X@XoX|.`.z.z.z.z.a.e.w.` u ; @ 2 K J G G G J >.1.6.k.t.:.",
"k m m Z Z V C C C w , j B.&XOX&X>X>X>X>X>X=X=X=X=X>X>X>X=X=X=X=X=X>X>X,X=X+X|.).).).x.z.a.i.w. .c 1 % = k C V V V S S _ =.=.-.:.",
"g g m Z V C S S m 2 6 _ XX%X%X,X<X<X,X,X,X>X=X=X=X>X=X=X@X%X=X=X%X%X=X%X+XoX'./.x.).).z.z.p.e.o.~ e = $ t V V V V S S _ =.=.;.-.",
"k Z S G >.3.4.3.Z 1 e ..XX;X%X,X,X,X>X=X=X@X@X*X=X=X=X=X@X@X=X=X@X@X+XoX|.'./.z.z.z.z.z.z.a.e.w.( u , & w J ,.,.,.,.5.1.1.k.-.-.",
"V G ,.9.M.A.F.D.C 2 h u.&X;X;X%X;X%X%X%X=X*X*X+X+X+X=X=X@X%X=X@XoXoX|.|.|.).x.z.z.z.z.z.s.a.p.w.` j 1 ; g N.F.F.F.F.D.A.f.f.t.t.",
">.3.0.V.D.P.Y.Y.>.w l B.%X;X%X%X%X%X%X%X@X+X+X+X+XoXoX@X+X*X%X+XoX X|.'.'.].).x.z.c.s.s.a.a.p.w.' x 5 : V E.6X6X6X6X:X$XW..Xv.b.",
"0.V.A.D.P.Y.R.R.3.t A B.%X;X%X&X@X@X@X@X@X@X+X@X*X+X@X@X+X*X=X%X%X+XoX|. X|.'.)./.z.z.a.p.a.e.w.` x 5 1 S 6XwXwXwXwXqX8X6X5X5X.X",
"D.F.Q.Y.R.E.$X6X0.h D g.#X&X&XOXOX@X%X=X=X>X>X>X>X>X>X>X=X=X=X>X>X>X%X%X@XOX#X|.`./.z.a.r.e.e.w. .v 7 1 V wXeXeXeXeXeXrX0X8X5X5X",
"Y.R.$X6X6X6X6X8XA.h A u.XX&XOXOXOX@X%X=X>X=X=X,X,X,X,X,X>X>X=X=X>X,X>X%XOXOX+X|.{.).z.a.p.e.e.w. .W e < l wXsXsXdXsXuXeXrX0X8X5X",
"$X:X6X8X8X8X8X8XF.l N q.}.#XOXOXOX@X%X%X@X@X@X%X@X@X@X+X+X+X+X#X+X@X+X|.XXXX}._.(.B.p.w.w.w.w.o.X.^ r 1 k wXfXfXfXdXdXsXeXrX8X5X",
"6X6X8XrXeXeXeXrXY.l c q._.XX#X#X#X#XOX@XOX#X|.{._.(.).`.`.|.|.).).`.).^.g.u.X.} } } } } ` (  .o.X.` u 6 r 6XgXgXgXfXfXdXuXrX0X5X",
"qXwXrXeXeXyXeXeXE.l h u._.XX#X{.B.B.g.u. .} ` ' X.o.y.h.x.`.`.z.s.p.o.' M u e e r x W W W W Q  .X.' j 7 t ~.gXgXgXgXfXdXuXrX8X5X",
"wXwXeXeXeXyXyXyX7XA j q._.XX_.u. .} ! j e 5 9 y i v ( w.h.).).s.o.( b u y 9 6 t c ~ ` } | ` ^ ' o. .x 7 t P.gXgXgXgXfXdXuXrX8X5X",
"wXeXeXeXeXyXyXyX0X{ h q.(._.y.` ! W M j r 9 9 9 y u b ' h.|.'.x.w.~ p u 9 9 t z W ^ ' | | | | ` X.o.M e f U.hXgXgXgXfXsXeXrX5X.X",
"eXeXeXeXeXyXyXuXrX,.l q.(.h.X.} | | } ^ W z u a a u z ( h.+X+X`.p.} R p p u e e r r z b U ^ ' o.o.q.! e Z Q.6XaXfXaXaXpXwX8X5X.X",
"uXuXuXuXuXuXuXiXuX0.N u.(.a.o.| ( ~ W c u t t i b U W | h.@X@X`.a.o. .( U x e - ; < t r z ~ X.w.w.w.' u A u.u.T.aXaXaXpXwX8X$Xv.",
"dXdXdXiXiXiXiXiXiXf.N u.(.p.X.' U z h 4 - , 6 x U Q  .o.^.+XoX/.i.O.e.X.` } ~ j r l W z v ' u.g.p.w.| x | i.)  .qXaXpXtXwX6X$Xl.",
"fXdXdXdXiXiXiXyX8Xf.M u.(.h.w.' U i x l 7 7 x ^ (  .w.i.).+X Xz.e.w.i.i.w.X. .X. . .| (  .y.h.(.h.i.X.W X.+.T Q :XpXpXtXqX6X.Xl.",
"fXdXdXiXiXiXiX5Xj.w.^ g.{.h.p.q. .| ' } ^ ^ | | X.w.i.s.|.+X Xz.e.w.e.p.a.s.p.i.w.o.o.w.p.h.z.^.h.i.o.~ X.i.[ ) :XpXpXtXqX6X.Xt.",
"dXdXdXiXiXuXiX$Xh.z.w.g.{._.(.h.h.p.w. .|  .w.p.s.a.h.).+X*X|.z.@.O.e.a.z.^.^.^.^.^.^.z.z.z.(.x.a.i.X.~ ) d.@.+.XXpXpXtXqX4X.Xt.",
"dXdXiXiXuXyXyX$X| s.g.^.{.#X#XXX}._.(.h.h.B.^.(.(.).'.#X=X=XoX/.e.+.e.a.z.).`.).).).(.).^.).(.x.a.w. .W U +.d.O.XXpXpXtXqX4XG.t.",
"iXuXuXeXeXrXrX}.Q i.g.B._.#X&X&XOX#X|.{._._.{.|.|.|.|.@X=X=X|./.i.+.O.i.c.).'.'.`.).).).).).).z.p.w. .W Q $.d.d.XXpXtXwX6X$XG.t.",
"yXeXeXrX0X0X0Xg.) z.u.p.^.{.@X%X@XOX|.`.|.|.|.|.|.'.|.OX=X=X|./.d.O.+.@.a.).'.'.).).).).).).z.a.i.w.' Q  .O.d.z.XXeXtXqX6X$Xl.-.",
"rX0X0X0X9X9X9Xj.i.z.X.w.h._.@X>X%X+X|.|.|.oX|.'.`./.).#X@X@X+X|.z.e.+.+.i.).|.|.'.).).).^.z.z.a.e.X.( W y.d.d.z.XXwXqX6X$X$Xl.-.",
"0X9X9X7X4X4X4XG.z.e.O.q.p.(.|.&X@X+X+XoXoXoX|.].x.a.z.#X@X@X@X@X|.a.O.O.e.z.`.|.|.|.`.).z.z.s.p.w. .~ R y.d.#.s.XXqX6X6X$XG.t.-.",
"7X7X4X4X4X4X3XG.z.O.+. .w.h._.#X+X+X+XoXoX|.|.`.z.a._.OX@X+X+X@X|.s.O.O.O.a.z.).`.'.'.)./.z.a.p.w.' W U O.@.@.s.$X6X:XR.Y.l.t.-.",
"4X3X3X3X3X3X3Xl.z.O.e.| X.p.x.|.OX@X+X|.|.'.].x.a.p.h.a.p.h.^.^.s.+.I I [ i.s.z.^.).).)./.h.i.e.w.' v U i.d.d.g.R.!.R.Y.G.f.k.;.",
"3X1X3X3X3X3X2XG.z.O.a.X.~ X.h._.|.oXoX|.|.'.).z.i.e.' p p ) X.X.' R p U +.a.z.c.a.z./.).x.s.e.w.q.~ z W i.a.h.V.U.U.I.F.A.k.-.;.",
"1X1X3X3X1X2X2XG.z.c.z.e.W  .p.^._.|.|.|.'.`.z.a.a.a.O.Y R Q U b v Q ~ ( X.i.s.h.a.a.x./.x.s.w.o. .~ x ^ s.s.B.K.K.K.S.A.f.k.-.;.",
"3X3X3X1X2XJ.J.J.(.x./.x.^ ' w.^.(.).).).).x.s.a.z.s.w.| ^ ~ W W W M M W ~ ' w.p.a.s.z.z.z.a.w. .` W b ^ u.V.I.K.N.N.M.0.f.k.;.;.",
"7X4X3X1X2XJ.J.H.G._.).).} ^ o.s.z.z.z.^.x.s.a.a.a.w.' W W W ^ } ~ M x z j z v ` X.w.s.z.z.p.w.| ^ R c 5.I.I.I.K.C.N.M.0.6.k.;.;.",
"9X7X7X3X2XJ.J.H.H.G.(.z.' M ` u.s.s.z.x.s.p.w.o. .' ~ W v v ^ | ` ! W M v v v R W ~ o.x.h.y.X.' ~ R N 9.~.I.I.K.C.N.m.0.6.1.=.=.",
"9X9X7X4X1X2XJ.H.H.A.f.6.! c ^ q.i.p.h.z.s.e. .~ U Q ^ ( (  .p.a.p.p.i.w.O. .' ~ M v ' s.a.w. .( W W D M.U.I.I.K.N.M.9.6.6.1.=.&.",
"0X0X9X4X1XE.J.H.H.A.0.4.C l /  .q.y.h.z.a. .~ M W | o.w.O.O.@.i.O.+.+.+.+.$.' Q R W ' p.p. .` ~ W ~ _ C.I.I.P.K.N.M.9.6.1.=.=.&.",
"0X0X9X4X3XE.J.H.H.A.0.8.S l W '  .q.u.h.a.' Q W ^ $.' ) ) Y Y Y Y Y Y Y I I E ' ' ^ ' w.q.| ` ! ~ ! <.K.I.L.K.S.M.n.9.6.1.=.=.&.",
"0X0X9X7X3XE.J.H.F.A.0.5.S h M ^ }  .q.p.h.o.~ I I I I Y Y Y I I I ) ) [ ) [ O.a.p.o.X.o.` ^ ` ^ ~ ! <.K.K.K.K.N.n.4.3.,.1.=.=.&.",
"9X7X7X4X1XE.J.H.A.0.8.>.S h c ^ } ` '  .p.w.' X.p.e.@.#.d.d.d.d.[.[.d.@.+.O.i.s.z.i.o. .^ W ~ ! W / 4.K.N.N.N.m.9.3.,.{ _ =.=.&.",
"7X4X4X3XE.Y.H.F.A.0.4.>.S g l / _ ` ^ ^  .X.o.e.s.z.i.@.@.d.[.[.[.d.#.O.O.e.a.s.s.i.X.' ^ ! ~ W M / 9.N.M.M.n.9.4.3.,._ _ ] =.&.",
"3X1X1XE.R.J.F.A.0.8.5.H C g l ! ! ^ _ ~ ^ ` o.i.a.s.p.e.O.+.+.[ ) Q I ( X.e.a.s.p.q.| ^ ~ ~ W v M _ 7.n.n.n.9.4.3.,.{ _ _ ] &.&.",
"Y.Y.E.R.Y.H.D.Z.0.4.>.G V g g N ^ _ _ ! ^  .X.u.p.i.i.w.` E p a u b Q  .e.a.s.h.p.X.` M W M x M ^ ..4.4.3.3.5.2.{ G G D ] ] P &.",
"H.H.J.Y.H.F.S.M.9.4.>.G V g f h ^ _ ^ W W ` o.p.h.a.i.w.w.O.O.O.w.a.^.z.z.z.z.z.p.o.^ M v j u M ' ..>.>.{ J J J G S S A W ] P P ",
"A.D.F.F.D.S.M.9.9.3.J K V h f f / } ~ W ! ( X.p.h.x.x.z.^.).).).`.'.`.).).(.h.p.i. .W b z i j ( X...{ G G K S S C Z Z M M L P P ",
"0.M.S.S.C.M.n.9.3.>.G S V h f f M q.` M W ~ ' y.h.^._.{.|.`.(.(.(.(.(.z.s.g.p.o. .^ x j j j ^ X.q...S C C V Z m k k k x s L P P ",
"8.9.M.M.m.9.7.3.2.J K C Z h f f c q.y.~ c v M ^ y.h.h.s.s.h.^.h.s.y.w.q. .| ^ W W x u t u R X.w.w.} Z k k k g g f r r i s L L P ",
"2.4.9.9.9.4.3.2.>.H K C m h h h h  .h.X.v x j c ^ 1...' | X.o.o.X.' ~ W W R v z j t e r v  .w.y.w.} h r f r r t e e e r i s L L ",
"J >.3.3.3.2.2.J G G S V m h h h h  .B.g.} x u u j M M c v M W W M v j j j j n r t e r M } y.p.i.w.^ e 5 w w w 5 5 5 5 e a d d s ",
"K G %.2.2.>.J G G K C V k j h h h } B.B.i.` z e e t t t t t r h h r e e e 7 5 7 e e j ' y.g.g.p.w.^ 7 1 1 1 , , , : , 6 q q d d ",
"C K G J J J G G G S V Z k k j h h _ B._.B.i.` j e 7 5 5 5 6 6 5 7 6 1 2 2 < < 6 7 j ` y.g.h.g.p.y.^ 5 : : - = & & & ; > > 0 q q ",
"Z C S G G G G K K S V m k k j h h ^ B.}.(.h.y.' j 5 1 1 , : : < 1 1 < < 1 < , 5 v  .w.p.g.h.g.p.w.^ 6 - - = $ % % % $ & > > 0 q "
};
