/* XPM */
static char *player[] = {
/* columns rows colors chars-per-pixel */
"64 64 162 2 ",
"   c None",
".  c #7D6C00",
"X  c #BC3E00",
"o  c #CF2E00",
"O  c #D72500",
"+  c #D92600",
"@  c #D32C00",
"#  c #D82800",
"$  c #C73600",
"%  c #CD3200",
"&  c #C43900",
"*  c #CC3C03",
"=  c #D13302",
"-  c #DC3305",
";  c #DD3708",
":  c #D63F08",
">  c #DE3B09",
",  c #E03C0B",
"<  c #8D5F00",
"1  c #955D00",
"2  c #9B5E00",
"3  c #AF4400",
"4  c #AE4E00",
"5  c #BC4100",
"6  c #B24900",
"7  c #B94F04",
"8  c #A65500",
"9  c #A45801",
"0  c #B65305",
"q  c #B65907",
"w  c #8C6600",
"e  c #856F00",
"r  c #8C6C00",
"t  c #926600",
"y  c #996000",
"u  c #916800",
"i  c #867200",
"p  c #887000",
"a  c #937406",
"s  c #977708",
"d  c #997608",
"f  c #9E790B",
"g  c #A56406",
"h  c #A86306",
"j  c #AB6E0B",
"k  c #B16108",
"l  c #BC650E",
"z  c #B26F0E",
"x  c #B9690E",
"c  c #AA710D",
"v  c #A47A0D",
"b  c #BC6A10",
"n  c #AD7E12",
"m  c #BE7214",
"M  c #B17E14",
"N  c #C44303",
"B  c #CD4306",
"V  c #C94B08",
"C  c #D7430A",
"Z  c #DD410C",
"A  c #DA4C0F",
"S  c #CD560E",
"D  c #D7500F",
"F  c #D95A14",
"G  c #E1420D",
"H  c #E44710",
"J  c #E44B12",
"K  c #E65115",
"L  c #E95D1B",
"P  c #DD681B",
"I  c #C57C1A",
"U  c #D2711A",
"Y  c #E3621A",
"T  c #EB621D",
"R  c #EC6720",
"E  c #F06F24",
"W  c #EE7124",
"Q  c #E77925",
"!  c #E97825",
"~  c #F07225",
"^  c #F37C2A",
"/  c #F87E2D",
"(  c #B18015",
")  c #BC831A",
"_  c #C4851D",
"`  c #CE8B23",
"'  c #DD8124",
"]  c #D28A24",
"[  c #DE8E29",
"{  c #EE862C",
"}  c #E08E2A",
"|  c #E08E2B",
" . c #E28F2B",
".. c #E38F2C",
"X. c #E28F2C",
"o. c #E08E2B",
"O. c #E88A2C",
"+. c #F4812C",
"@. c #F5832E",
"#. c #F4802C",
"$. c #E3912D",
"%. c #E3922D",
"&. c #E4902C",
"*. c #E4902D",
"=. c #E4912D",
"-. c #E2912C",
";. c #E9912F",
":. c #EA922F",
">. c #F78B31",
",. c #F98E33",
"<. c #F88B32",
"1. c #EB9230",
"2. c #EC9230",
"3. c #EC9330",
"4. c #ED9331",
"5. c #EE9331",
"6. c #EF9332",
"7. c #EC9431",
"8. c #ED9532",
"9. c #EF9532",
"0. c #EE9632",
"q. c #EC9331",
"w. c #F09432",
"e. c #F19533",
"r. c #F29533",
"t. c #F29433",
"y. c #F39534",
"u. c #F49534",
"i. c #F59635",
"p. c #F79636",
"a. c #F39534",
"s. c #FA9134",
"d. c #FB9436",
"f. c #F89736",
"g. c #F89636",
"h. c #FA9737",
"j. c #FA9536",
"k. c #F49835",
"l. c #F99938",
"z. c #FC9838",
"x. c #FD9838",
"c. c #FD9839",
"v. c #FD9939",
"b. c #FE9939",
"n. c #FF9939",
"m. c #FD9A39",
"M. c #FD9B39",
"N. c #FF993A",
"B. c #FF9A3A",
"V. c #FE9B3A",
"C. c #FF9A3B",
"Z. c #FF9B3A",
"A. c #FD9C3A",
"S. c #FD9D3A",
"D. c #FE9D3B",
"F. c #FF9B3C",
"G. c #FF9B3D",
"H. c #FF9D3D",
"J. c #FF9E3D",
"K. c #FE9F3C",
"L. c #FD9939",
"P. c #FFA23D",
/* pixels */
"                                                # # # # # # # # # # # # # # # + O O O O                                         ",
"                                              # # # # # # # # # # # # O O O # - ; > G G                                         ",
"                                  # # # # # # # # # # # # # # # # # + O O O - G L W ^ +.                                        ",
"                              # # # # # # # # # # # # # # # # + + # # - ; G K R ^ s.D.P.                                        ",
"                          # # # # # # # # # # # # # # # # # # O O # ; H L ~ +.,.f.z.D.P.                                        ",
"                        + + + + + + + + + + + + + + O O O O + O + # - H L ~ ^ +./ ^ ^ W T                                       ",
"                        + + + + + + + + + + + + + + O O O O O + + + # - ; > G G G G > ; - # O O O + # # # # #                   ",
"                        & & & & & & & & & & * * C Z G G G G Z : * * * * : Z G G G G G G G G > ; - # O O O O O                   ",
"                        2 2 2 2 2 2 2 2 1 2 h x U Q ^ / / ^ Q U x h h x U ! ^ / / ^ ^ ^ ^ ^ ^ ~ T                               ",
"                      d f v v v v v f s p p d ( ] 0.z.H.H.z.0.` n d a v ) ] $.0.k.z.z.z.z.z.z.D.D.                              ",
"                  p s n _ ] [ $.$.[ ] ) v a d M ] 0.z.H.H.z.0.] M s p p a f n _ [ w.z.z.z.z.z.z.z.z.z.z.z.z.z.                  ",
"                e p d M ] 4.z.F.H.z.4.] M d s v ) ] &.w.p.f.w.[ _ M v f f v n _ [ w.z.z.z.z.z.z.z.z.z.z.z.z.z.z.z.              ",
"                e p d M ] 4.z.F.F.z.4.] M d p p a v M _ [ w.f.p.4.&.| [ [ [ X.:.y.z.z.z.z.z.z.z.z.z.z.z.z.z.z.z.z.z.z.          ",
"              e e p d M ] 4.z.z.F.z.4.] M s e . . e s n ] 4.z.z.z.z.z.z.z.z.z.p.1.&.&.:.w.f.z.z.z.z.z.z.z.z.z.z.z.z.z.z.        ",
"          p p e e p s M ] 4.z.z.F.z.4.] M s e . . e s n ] 4.z.z.z.z.z.z.F.z.p.[ _ M M _ [ w.z.z.z.z.z.z.z.z.z.z.z.z.z.z.        ",
"        p p p e e p d M ] 4.z.F.z.z.w.[ _ M v f f v M _ [ w.f.p.4.X.[ | | [ ] ) v a a v ) ] | X.X.| | | | | $.:.w.p.z.          ",
"        p p p e e p d M ] 0.z.z.z.z.f.w.1.&.| [ [ | &.4.p.f.w.[ _ n v v v v v d a p p a d v v v v v v v v v v n )               ",
"        p p p e e p s v ) ] &.4.p.f.z.z.z.z.z.z.z.z.z.z.z.z.w.[ _ n f a p p e e e e e e e e e e e e e e e e e e                 ",
"        p p p p e p p a s v M _ [ y.z.z.z.z.z.z.z.z.z.z.z.z.f.p.4.X.] ) v a e e e e e e e e e e e e e e e e e e                 ",
"          p p p p p p e e p a v ) ] $.0.p.f.z.z.z.z.z.z.z.z.z.z.z.z.y.[ _ M v v v v v v v v v v v v v f s p p                   ",
"                      e e p p p s f n _ [ w.z.z.z.z.z.z.z.z.z.z.z.z.f.y.1.&.| | | X.X.| | | | | | | [ ] _                       ",
"                          p r w t 2 g m ' 4.z.z.z.z.z.z.z.z.z.z.z.z.z.z.z.z.z.p.4.&.&.1.y.z.z.z.z.z.z.                          ",
"                              3 X & B F ! >.z.D.D.z.z.z.z.z.z.z.z.z.z.z.z.z.y.[ _ ( n n )                                       ",
"                                $ * B D Y W ^ { O.| | | | | | | | | | $.$.| ] I z g 2 1 <                                       ",
"                                2 2 9 0 V C A S l c v v v v v v v v v v v v c k 7 5 X 6 9 t e                                   ",
"                              i i p t 8 5 % % X 8 t e i i e e e e e p i i e t 8 X % % 5 8 t p i i                               ",
"                          p p p i p t 8 X % % X 8 t e p p p p p p p p p i e t 8 X % % 5 8 t p p p p p                           ",
"                      p p p p p p p t 8 5 % % 5 8 t p p p p p p p p p p p p t 8 5 % % 5 8 t p p p p p p p                       ",
"                  p p p p p p p p p t 8 5 % % 5 8 t p p p p p p p p p p p r t 8 5 % % 5 8 t p p p p p p p p p                   ",
"              p p p p p p p p p p p t 8 5 % % 5 8 t p p p p p p p p p p p r t 8 5 % % 5 8 t p i p p p p p p p p p               ",
"          p p p p p p p p p p p i p u 8 5 % % 5 8 t p p p p p p p p p p p p t 8 5 % % 5 8 u p i p p p p p p p p p p p           ",
"        p p p p p p p p p p r r t y 9 6 & % % 5 8 t p p p p p p p p p p p r t 8 5 % = & 6 8 y t r r p p p p p p p p p p         ",
"        p p p p p p p p p p u 2 4 5 % @ @ @ % 5 8 t r p p p p p p p p p p p t 8 5 % @ @ @ $ 5 4 2 u p p p p p p p p p p         ",
"      p p p p p p p p p p p t 8 5 % + + + # % 5 8 t p i p p p p p p p i i p u 8 5 % # + + + % 5 8 t p p p p p p p p p p p       ",
"p p p p p p p p p p p p p p t 8 5 % + + + # % 5 8 u p i i p p p p p p i i p u 8 5 % # + + + % 5 8 t p p p p p p p p p p p p p p ",
"p p p p p p p p p p p p p p t 8 5 % # + + + o & 6 9 2 y y 2 2 2 2 2 2 y y 2 9 6 & o O + + # % 5 8 t p p p p p p p p p p p p p p ",
"p p p p p p p p p p p p p p t 8 5 % # + + + @ @ % $ & & & & & & & & & & & & $ % @ @ O + + # % 5 8 t p p p p p p p p p p p p p p ",
"e e e e e e e e p e p p i e t 8 5 % # - , G G ; - # + + + + + + + + + + + + # - ; G G , - # % 5 8 t e i p p p p e e e e e e e e ",
"e e e e e e e e e e e i i e t 8 X % ; H T ~ ~ T J ; # + + + + + + + + + + + - H T ~ ~ T H ; % X 8 t e i i e e e e e e e e e e e ",
"v v v v v v v v v v v v v v j q N = ; H T ~ ~ T J - # O O # # # @ # # O O # ; J T ~ ~ T H ; = N q j v v v v v v v v v v v v v v ",
"| | | | | | | | | | | $.$.| ' P A - # - ; G G ; - # # + + # # # # # # + + # # - ; G G ; - # - A P ' | $.$.| | | | | | | | | | | ",
"z.z.z.z.z.z.z.z.z.z.z.D.H.z.<.~ K ; # O O O O O + # # # # # # # # # # # # # # + + O O O O # ; K ~ <.z.D.D.z.z.z.z.z.z.z.z.z.z.z.",
"z.z.z.z.z.z.z.z.z.z.z.D.D.z.<.E K ; # O O O + O + # # # # # # # # # # # # # # + + + O O O # ; K E <.z.D.z.z.z.z.z.z.z.z.z.z.z.z.",
"z.z.z.z.z.z.z.z.z.z.z.D.D.z.<.W K ; # O O # # # # # # # # # # # # # # # # # # # # # + O O # ; K W >.z.D.z.z.z.z.z.z.z.z.z.z.z.z.",
"      z.z.z.z.z.z.z.z.D.D.z.<.~ K ; # O O + # # # # # # # # # # # # # # # # # # # # # O O # ; K W <.z.D.D.z.z.z.z.z.z.z.z.      ",
"        z.z.z.z.z.z.f.s.<.+.~ L G - # O O # # # # # # # # # # # # # # # # # # # # # # O O # - G L ~ +.<.s.d.z.z.z.z.z.z.        ",
"        z.z.z.z.D.z.,.^ T J G ; - # # + + # # # # # # # # # # # # # # # # # # # # # # # + # # - ; G J T ^ ,.z.D.z.z.z.z.        ",
"          z.f.s.>.+.W L G - + O O + # # # # # # # # # # # # # # # # # # # # # # # # # # # # + O O + - G L ~ +.<.s.d.z.          ",
"              T K G > ; - # + O O # # # # # # # # # # # # # # # # # # # # # # # # # # # # # # + O + # - ; > G K T               ",
"              O O O O O + # # # # # # # # # # # # # # # # # # # # # # # # # # # # # # # # # # # # # # + O O O O O               ",
"          O O O O O + + # # # # # # # # # # # # # # # # #             # # # # # # # # # # # # # # # # + + + O O O O O           ",
"        # # # # # # # # # # # # # # # # # # # # # # #                     # # # # # # # # # # # # # # # # # # # # # # #         ",
"        # # # # # # # # # # # # # # # # # # # # #                             # # # # # # # # # # # # # # # # # # # # #         ",
"        # # # # + + + + + + + + + + + + + + + +                                 + + + + + + + + + + + + + + + + # # # #         ",
"        # # # + + + + + + + + + + + + + + + + +                                 + + + + + + + + + + + + + + + + + # # #         ",
"          # @ @ % & & & & & & & & & & & & & & &                                 & & & & & & & & & & & & & & & % @ @ #           ",
"              4 9 2 2 2 2 2 2 2 2 2 2 2 2 2 2 2                                 2 2 2 2 2 2 2 2 2 2 2 2 2 2 2 9 4               ",
"                p p p p p p p p p p p p p p p p                                 p p p p p p p p p p p p p p p p                 ",
"                p p p p p p p p p p p p p p p p                                 p p p p p p p p p p p p p p p p                 ",
"              p p p p p p p p p p p p p p p p p                                 p p p p p p p p p p p p p p p p p               ",
"p p p p p p p p p p p p p p p p p p p p p p p p                                 p p p p p p p p p p p p p p p p p p p p p p p p ",
"p p p p p p p p p p p p p p p p p p p p p p p p                                 p p p p p p p p p p p p p p p p p p p p p p p p ",
"p p p p p p p p p p p p p p p p p p p p p p p p                                 p p p p p p p p p p p p p p p p p p p p p p p p ",
"p p p p p p p p p p p p p p p p p p p p p p p p                                 p p p p p p p p p p p p p p p p p p p p p p p p "
};
