/* XPM */
static char *wall[] = {
/* columns rows colors chars-per-pixel */
"64 64 71 1 ",
"  c #000000",
". c #010000",
"X c #030100",
"o c #040100",
"O c #050200",
"+ c #090301",
"@ c #0A0401",
"# c #0B0401",
"$ c #0C0501",
"% c #100601",
"& c #110701",
"* c #120701",
"= c #130701",
"- c #170901",
"; c #180901",
": c #1B0A02",
"> c #1C0A02",
", c #1C0B02",
"< c #1D0B02",
"1 c #250E02",
"2 c #260F02",
"3 c #280F02",
"4 c #291002",
"5 c #2B1003",
"6 c #381503",
"7 c #391603",
"8 c #3C1704",
"9 c #3D1704",
"0 c #421904",
"q c #431A04",
"w c #441A04",
"e c #451A04",
"r c #461B04",
"t c #471B04",
"y c #481B04",
"u c #491C04",
"i c #4A1C04",
"p c #4B1D05",
"a c #682706",
"s c #682806",
"d c #692806",
"f c #6A2806",
"g c #792E07",
"h c #7A2E07",
"j c #7B2F07",
"k c #7C2F07",
"l c #7D2F07",
"z c #7D3008",
"x c #7E3008",
"c c #7F3008",
"v c #803108",
"b c #943809",
"n c #AB410A",
"m c #AC410A",
"M c #AC420A",
"N c #AD420A",
"B c #B1430B",
"V c #B2440B",
"C c #C64B0C",
"Z c #C74C0C",
"A c #C84C0C",
"S c #C94C0C",
"D c #CA4D0C",
"F c #CC4E0C",
"G c #CD4E0C",
"H c #CE4E0C",
"J c #CF4F0C",
"K c #D04F0C",
"L c #D3500D",
"P c #D5510D",
"I c #D6510D",
/* pixels */
"AAAAAAAAAAAAAAAAAAAAAAAGGZmh0,,0hmZGGAAAAAAAAAAAAAAAAAAGGZmkw;XX",
"AAAAAAAAAAAAAAAAAAAAAAAGGZmh0,,0hmZGGAAAAAAAAAAAAAAAAAAGGZmkw;XX",
"AAAAAAAAAAAAAAAAAAAAAAAGGZmh0,,0hmZGGAAAAAAAAAAAAAAAAAAGGZmhw;XX",
"AAAAAAAAAAAAAAAAAAAAAAAGGZmh0,,0hmZGGAAAAAAAAAAAAAAAAAAGGZmkw;XX",
"AAAAAAAAAAAAAAAAAAAAAAAGGZmh0,,0hmZGGAAAAAAAAAAAAAAAAAAGKZmkw;XX",
"AAAAAAAAAAAAAAAAAAAAAAAGGZmh0,,0hmZGGAAAAAAAAAAAAAAAAAAGKAmkw;XX",
"AAAAAAAAAAAAAAAAAAAAAAAGKAmh0,,0hmAKGAAAAAAAAAAAAAAAAAAGKAmkw;XX",
"GGGGGGGGGGGGGGGGGGGGGGGLPGBkw,,wkBGPLGGGGGGGGGGGGGGGGGGLPGBzy;XX",
"GGGGGGGGGGGGGGGKGGGGGGKPPGVzw,,wzVGPPKGGGGGGKKKGGGGGGGKPPGVvu,XX",
"ZZZZZZZZZZZZZZZZZZZZZZAGGCnh0,,0hnCGGAZZZZZZZAAZZZZZZZAGGCmhw;XX",
"mmmmmmmmmmmmmmmmmmmmmmmBVnbs6--6sbnVBmmmmmmmmmmmmmmmmmmBVnbs9-XX",
"hhhhhhhhhhhkzzzzkhhhhhhkzhsy1$$1yshzkhhhhhhkzzzzkhhhhhhkzhsu3$XX",
"00000000000wwuuww000000ww061*XX*160ww000000wwyyww000000ww061*XXX",
",,,,,,,,,,,,;;;,,,,,,,,,,,;*@OO@*;,,,,,,,,,,;;;;,,,,,,,,,,;*@OXX",
",,,,,,,,,,;*@OO@*;,,,,,,,,,,;;;;,,,,,,,,,,;*@OO@*;,,,,,,,,,,;;;;",
"0000000ww061*XX*160ww000000wwyyww000000ww061*XX*160ww000000wwuuu",
"hhhhhhhzzhay1$$1yshzzhhhhhhkzzzzkhhhhhhkzhsy1$$1yshzzhhhhhhkzzzz",
"mmmmmmmBVnbs6--6sbnVBmmmmmmmmmmmmmmmmmmBVnbs6;-6sbnVBmmmmmmmmmmm",
"ZZZZZZAGGCnh0,,0hnCGGAZZZZZZZZZZZZZZZZAGGCnh0,,0hnCGGAZZZZZZZZZZ",
"GGGGGGKPPGVzw,,wzVGPPKGGGGGGGGGGGGGGGGKPPGVzw,,wzVGPPKGGGGGKGGGG",
"GGGGGGGLPGBkw,,wkBGPLGGGGGGGGGGGGGGGGGGLPGBkw,,wkBGPLGGGGGGGGGGG",
"AAAAAAAGKAmh0,,0hmAKGAAAAAAAAAAAAAAAAAAGKAmh0,,0hmAKGAAAAAAAAAAA",
"AAAAAAAGKAmh0,,0hmAKGAAAAAAAAAAAAAAAAAAGKAmh0,,0hmAKGAAAAAAAAAAA",
"GGGGGGGLPGBkw,,wkBGPLGGGGGGGGGGGGGGGGGGLPGBkw,,wkBGPLGGGGGGGGGGG",
"GGGGGGKPPGVzw,,wzVGPPKGGGGGGGGGGGGGGGGKPPGVzw,,wzVGPPKGGGGGGGGGG",
"ZZZZZZAGGCnh0,,0hnCGGAZZZZZZZZZZZZZZZZAGGCnh0,,0hnCGGAZZZZZZZZZZ",
"mmmmmmmBVnbs6;;6sbnVBmmmmmmmmmmmmmmmmmmBVnbs6-;6sbnVBmmmmmmmmmmm",
"hhhhhhhzzhsy1$$1yshzkhhhhhhkzzzzkhhhhhhzzhsy1$$1yahzzhhhhhhkzzzv",
"0000000ww061*XX*160ww000000wwuuww000000ww061*XO*160ww000000wwyuu",
",,,,,,,,,,;*@OO@*;,,,,,,,,,,,;;,,,,,,,,,,,;*@OO@*;,,,,,,,,,,;;;;",
",,,,,,,,,,,,,;;;,,,,,,,,,,;*@OO@*;,,,,,,,,,,;;;;,,,,,,,,,,;*@OXX",
"00000000000wwuyww000000ww061*OO*160ww000000wwuuww000000ww061*XXX",
"hhhhhhhhhhhkzzzzkhhhhhhkzhsy1$$1yshzzhhhhhhkzzzzkhhhhhhkzhsu1@XX",
"mmmmmmmmmmmmmmmmmmmmmmmBVnbs6;-6sbnVBmmmmmmmmmmmmmmmmmmBVnbs9-XX",
"ZZZZZZZZZZZZZZZZZZZZZZAGGCnh0,,0hnCGGAZZZZZZZZZZZZZZZZAGGCnhw;XX",
"GGGGGGGGGGGGGGGGGGGGGGKPPGVzw,,wzVGPPKGGGGGGGGGGGGGGGGKPPGVvu,XX",
"GGGGGGGGGGGGGGGGGGGGGGGLPGBkw,,wkBGPLGGGGGGGGGGGGGGGGGGLPGBzu,XX",
"AAAAAAAAAAAAAAAAAAAAAAAGKAmh0,,0hmAKGAAAAAAAAAAAAAAAAAAGKAmkw;XX",
"AAAAAAAAAAAAAAAAAAAAAAAGKAmh0,,0hmAKGAAAAAAAAAAAAAAAAAAGKAmkw;XX",
"GGGGGGGGGGGGGGGGGGGGGGGLPGBkw,,wkBGPLGGGGGGGGGGGGGGGGGGLPGBzu,XX",
"GGGGGGGGGGGGGGGGGGGGGGKPPGVzw,,wzVGPPKGGGGGGGGGGGGGGGGKPPGVvu,XX",
"ZZZZZZZZZZZZZZZZZZZZZZAGGCnh0,,0hnCGGAZZZZZZZZZZZZZZZZAGGCnhw;XX",
"mmmmmmmmmmmmmmmmmmmmmmmBVnbs6-;6sbnVBmmmmmmmmmmmmmmmmmmBVnbs8-XX",
"hhhhhhhhhhhkzzzzkhhhhhhzzhay1$$1yshzkhhhhhhkzzzzkhhhhhhzzhay1@XX",
"00000000000wwuuww000000ww061*OO*160ww000000wwuuww000000ww061*XXX",
",,,,,,,,,,,,,;;,,,,,,,,,,,;*@OO@*;,,,,,,,,,,,;;,,,,,,,,,,,;*@OXX",
",,,,,,,,,,;*@OO@*;,,,,,,,,,,,;;,,,,,,,,,,,;*@OO@*;,,,,,,,,,,,;;;",
"0000000ww061*OO*160ww000000wwuuww000000ww061*OO*160ww000000wwuuu",
"hhhhhhhzzhsy1$$1yahzkhhhhhhkzzzzkhhhhhhzzhsy1$$1yahzkhhhhhhkzzzz",
"mmmmmmmBVnbs6--6sbnVBmmmmmmmmmmmmmmmmmmBVnbs6--6sbnVBmmmmmmmmmmm",
"ZZZZZZAGGCnh0,,0hnCGGAZZZZZZZZZZZZZZZZAGGCnh0,,0hnCGGAZZZZZZZZZZ",
"GGGGGGKPPGVzw,,wzVGPPKGGGGGGGGGGGGGGGGKPPGVzw,,wzVGPPKGGGGGGGGGG",
"GGGGGGGLPGBkw,,wkBGPLGGGGGGGGGGGGGGGGGGLPGBkw,,wkBGPLGGGGGGGGGGG",
"AAAAAAAGKAmh0,,0hmAKGAAAAAAAAAAAAAAAAAAGKAmh0,,0hmAKGAAAAAAAAAAA",
"AAAAAAAGKAmh0,,0hmAKGAAAAAAAAAAAAAAAAAAGKAmh0,,0hmAKGAAAAAAAAAAA",
"GGGGGGGLPGBkw,,wkBGPLGGGGGGGGGGGGGGGGGGLPGBkw,,wkBGPLGGGGGGGGGGG",
"GGGGGGKPPGVzw,,wzVGPPKKGGGGGGGGGGGGGGGKPPGVzw,,wzVGPPKKGGGGGGGGG",
"ZZZZCCAGGCnh0;,0hnCGGAZZZZZZCCZZZZZZCCAGGCnh0;,0hnCGGAZZZZZZCCZZ",
"mmmmmmmBVmbs6--6sbmVBmmmmmmmmmmmmmmmmmmBVmbs6--6sbmVBmmmmmmmmmmm",
"kkkkhhkzvhsu3**3ushvzhhkkkkkhhhkkkkkhhkzvhsu3**3ushvzhhkkkkkhhhk",
"wwwwwwwuuw95-@@-59wuywwwwwwwwwwwwwwwwwwuuw95-@@-59wuywwwwwwwwwww",
",;;;;;,,,;-*+XO+*;;,;;;;;;;;;;,,,;;;;;,,,;-*+XO+*;;,;;;;;;;;;;,,",
"XXXXXXXXXXXXXXXXXXXXXXXXXXXXXXXXXXXXXXXXXXXXXXXXXXXXXXXXXXXXXXXX",
"XXXXXXXXXXXXXXXXXXXXXXXXXXXXXXXXXXXXXXXXXXXXXXXXXXXXXXXXXXXXXXXX"
};
