/* XPM */
static char *coin[] = {
/* columns rows colors chars-per-pixel */
"64 64 132 2 ",
"   c None",
".  c #000000",
"X  c #0C0703",
"o  c #0E0803",
"O  c #160D05",
"+  c #1D1206",
"@  c #211407",
"#  c #231508",
"$  c #331F0B",
"%  c #37210C",
"&  c #3E250E",
"*  c #40260E",
"=  c #4D2F11",
"-  c #4F3012",
";  c #533212",
":  c #5B3714",
">  c #5D3815",
",  c #633B16",
"<  c #6D4218",
"1  c #704117",
"2  c #734519",
"3  c #7F4C1C",
"4  c #814E1D",
"5  c #8A4D1A",
"6  c #87511E",
"7  c #89531E",
"8  c #B05F1F",
"9  c #905720",
"0  c #955A21",
"q  c #995C22",
"w  c #A25E21",
"e  c #9F6023",
"r  c #A16124",
"t  c #A86424",
"y  c #AD6826",
"u  c #B26020",
"i  c #BD722A",
"p  c #CF5612",
"a  c #D05712",
"s  c #D45E17",
"d  c #C2621D",
"f  c #D3641B",
"g  c #D9651A",
"h  c #DE6B1E",
"j  c #DF6E20",
"k  c #C3762B",
"l  c #C7782C",
"z  c #CA7A2D",
"x  c #D57225",
"c  c #D77D2C",
"v  c #D97E2C",
"b  c #E06E20",
"n  c #E47524",
"m  c #E77926",
"M  c #E87A27",
"N  c #EB7E29",
"B  c #D78230",
"V  c #DA8431",
"C  c #EC812B",
"Z  c #F1872E",
"A  c #F5892F",
"S  c #E08732",
"D  c #E48A33",
"F  c #ED8F35",
"G  c #F58E32",
"H  c #EE9035",
"J  c #EF9035",
"K  c #ED9036",
"L  c #EF9035",
"P  c #F09135",
"I  c #F79134",
"U  c #F49336",
"Y  c #F59436",
"T  c #F69537",
"R  c #F79537",
"E  c #F39336",
"W  c #F99033",
"Q  c #FA9133",
"!  c #FC9233",
"~  c #F89134",
"^  c #F89234",
"/  c #F99335",
"(  c #FC9334",
")  c #FD9334",
"_  c #F99435",
"`  c #F99436",
"'  c #FA9436",
"]  c #FA9536",
"[  c #F89637",
"{  c #FA9637",
"}  c #FB9737",
"|  c #FC9737",
" . c #FF9636",
".. c #FF9737",
"X. c #FB9536",
"o. c #F89638",
"O. c #FA9738",
"+. c #FB9738",
"@. c #FC9738",
"#. c #FB9738",
"$. c #FB9838",
"%. c #FC9838",
"&. c #FD9838",
"*. c #FC9938",
"=. c #FD9938",
"-. c #FD9939",
";. c #FE9938",
":. c #FC9A39",
">. c #FD9A39",
",. c #FE9A39",
"<. c #FE9B39",
"1. c #FF9B39",
"2. c #FE9B3A",
"3. c #FF9B3A",
"4. c #FF9C39",
"5. c #FF9C3A",
"6. c #FF9D3A",
"7. c #FF9E3A",
"8. c #FF9E3B",
"9. c #FF9F3B",
"0. c #FD9939",
"q. c #FFA03B",
"w. c #FFA13B",
"e. c #FFA13C",
"r. c #FFA23C",
"t. c #FFA33C",
"y. c #FFA23D",
"u. c #FFA33D",
"i. c #FFA43C",
"p. c #FFA43D",
"a. c #FFA53D",
"s. c #FFA33C",
/* pixels */
"                                                                                                                                ",
"                                                                                                                                ",
"                                                                                                                                ",
"                                                                                                                                ",
"                                                                                                                                ",
"                                                                                                                                ",
"                                                                                                                                ",
"                                                                                                                                ",
"                                          %.%.%.%.%.%.%.%.%.%.6.6.+.B q ; O . . . . .                                           ",
"                                        %.%.%.%.%.%.%.%.%.%.%.6.6.+.V r > # . . . . . .                                         ",
"                                        %.%.%.%.%.%.%.%.%.%.%.6.6.$.V y 2 & + o X . . .                                         ",
"                                      %.%.%.%.%.%.%.%.%.%.%.%.6.6.$.D k q < = $ + X . . .                                       ",
"                                  %.%.%.%.%.%.%.%.%.%.%.%.%.%.%.%.%.P V k t 6 > % O . . . . .                                   ",
"                                %.%.%.%.%.%.%.%.%.%.%.%.%.%.%.%.%.%.' R F V i 7 = + . . . . . .                                 ",
"                                %.%.%.%.%.%.' ' ^ G G G G G G ^ '  .%.6.6.+.B q : @ . . . . . .                                 ",
"                                %.%.%.%.%.%.' G Z N M m m M N Z W ..6.y.a.6.S r : + . . . . . .                                 ",
"                                %.%.%.%.6.%.' Z m h g g g g h M A  .6.y.a.6.V r : + . . . . . .                                 ",
"                                %.%.%.%.%.@.G C b s p p p p s j C G %.6.6.%.V r > # . . . . . .                                 ",
"                                %.%.' ' ^ G Z m h s a p p p s f x v S J +.R V y 2 * + o X . . .                                 ",
"                              %.%.%.' G Z C m n h g g g g g f d u t y k V J D l q 2 ; % + X . . .                               ",
"                          %.%.%.%.%.^ Z m b h h n m M N N m x 8 5 1 2 0 k D P D z y 7 , % O . . . . .                           ",
"                        %.%.%.%.%.%.G N h f s g m Z G ) ) G c w , * * < t V R %.U V i 7 = + . . . . . .                         ",
"                        %.%.%.%.%.%.G M g a a g M G %.6.6.+.B q ; # # ; q B %.q.q.+.B e > # . . . . . .                         ",
"                        %.%.%.%.%.%.G m g p p g M I %.y.y.%.V 0 - + + = 0 B %.a.a.6.S t , # . . . . . .                         ",
"                        %.%.%.%.%.@.G m g p p g M G %.y.y.%.V 0 ; + + - 0 B %.y.a.%.S r > # . . . . . .                         ",
"                        %.%.%.%.%.%.G m g p p g M G %.6.q.$.B q ; # # ; q B %.y.y.%.V r > # . . . . . .                         ",
"                        %.%.%.%.%.%.G M g p p g m G %.6.q.$.B q ; # # ; q B %.q.q.%.V r > # . . . . . .                         ",
"                        %.%.%.%.%.%.G M g p p g M G %.6.6.$.B q ; # # ; q B %.q.q.%.V r > # . . . . . .                         ",
"                        %.%.%.%.%.%.G M g p p g M G %.6.q.$.B q ; # # ; q B %.q.q.%.V r > # . . . . . .                         ",
"                        %.%.%.%.%.%.G M g p p g M G %.6.q.$.B q ; # # ; q B %.q.q.%.V r > # . . . . . .                         ",
"                        %.%.%.%.%.%.G M g p p g M G %.6.q.$.B q ; # # ; q B %.q.q.%.V r > # . . . . . .                         ",
"                        %.%.%.%.%.%.G M g p p g M G %.6.q.$.B q ; # # ; q B %.q.q.%.V r > # . . . . . .                         ",
"                        %.%.%.%.%.%.G M g p p g M G %.6.q.$.B q ; # # ; q B %.q.q.%.V r > # . . . . . .                         ",
"                        %.%.%.%.%.%.G M g p p g M G %.6.q.$.B q ; # # ; q B %.q.q.%.V r > # . . . . . .                         ",
"                        %.%.%.%.%.%.G M g p p g M G %.6.q.$.B q ; # # ; q B %.y.q.%.V r > # . . . . . .                         ",
"                        %.%.%.%.%.%.G M g a a g M G %.6.q.$.B q ; # # ; q B %.y.q.%.V r > @ . . . . . .                         ",
"                        %.%.%.%.%.%.G M g p p g M G %.6.6.$.B q ; # # ; q B %.y.q.%.V r > # . . . . . .                         ",
"                        %.%.%.%.%.%.G M g p p g M G %.6.q.$.B q ; # # ; q B %.y.q.%.V r > # . . . . . .                         ",
"                        %.%.%.%.%.%.G M g p p g M G %.6.q.$.B q ; # # ; q B %.q.q.%.B r > # . . . . . .                         ",
"                        %.%.%.%.%.%.G M g p p g M G %.6.q.$.B q ; # # ; q B %.q.q.%.B r > # . . . . . .                         ",
"                        %.%.%.%.%.%.G M g p p g M G %.6.q.$.B q ; # # ; q B %.q.q.%.V r > # . . . . . .                         ",
"                        %.%.%.%.%.%.G M g p p g M G %.6.q.$.B q ; # # ; q B %.q.q.%.V r > # . . . . . .                         ",
"                        %.%.%.%.%.%.G M g p p g M G %.6.q.$.B q ; # # ; q B %.q.q.%.V r > # . . . . . .                         ",
"                        %.%.%.%.%.%.G M g a a g M G %.6.q.$.B q ; # # ; q B %.q.q.%.V r > @ . . . . . .                         ",
"                        %.%.%.%.%.%.G M g p p g M G %.6.q.$.B q ; # # ; q B %.q.q.%.V r > # . . . . . .                         ",
"                        %.%.%.%.%.%.G M g a a g M G %.6.q.$.B q ; # # ; q B %.q.q.%.V r > # . . . . . .                         ",
"                        %.%.%.%.%.%.G M g p p g M G %.6.q.%.V q ; # # ; q B %.y.y.%.V r > # . . . . . .                         ",
"                        %.%.%.%.%.%.G m g p p g N W 6.y.a.6.V q ; + + = 0 B %.y.a.%.S r > # . . . . . .                         ",
"                        %.%.%.%.%.%.G m g p p g N ! 6.a.a.6.V q ; + + = 0 B %.a.a.6.S t , # . . . . . .                         ",
"                        %.%.%.%.%.%.G M g a p g m G %.6.6.+.B q ; # # ; q B %.q.q.+.B e > # . . . . . .                         ",
"                        %.%.%.%.%.%.G N h s s f x v B V S B i 9 > & * < t V R %.U V i 7 - + . . . . . .                         ",
"                          %.%.%.%.%.^ Z M j f d 8 w q q q q 9 3 < , 2 0 k D P D z y 7 , % O . . . . .                           ",
"                              %.%.%.' W A C x u 5 , ; = = ; > < 4 0 y z S J D l q 2 ; $ + X . . .                               ",
"                                %.%.@... .G v t 1 & # O O # & , 0 k V P %.R V y 2 & + o X . . .                                 ",
"                                %.%.%.%.6.+.V y 2 * # O O # * 2 y V $.q.q.%.V r > # . . . . . .                                 ",
"                                %.%.%.6.6.%.D k 0 < ; = = ; < 0 k F 6.a.a.6.V r : + . . . . . .                                 ",
"                                %.%.%.%.%.%.P V i t q 0 0 q t k V R 6.y.a.6.S r : + . . . . . .                                 ",
"                                %.%.%.%.%.%.' P D V B B B B V D P ' %.6.6.+.B e : @ . . . . . .                                 ",
"                                %.%.%.%.%.%.%.%.$.$.$.$.+.+.$.%.%.%.' R F V i 7 = + . . . . . .                                 ",
"                                  %.%.%.%.%.%.%.%.6.6.6.6.6.6.6.6.%.P V k t 6 > % O . . . . .                                   ",
"                                      %.%.%.%.%.%.6.6.6.6.6.6.6.6.%.D k q < = $ + X . . .                                       ",
"                                        %.%.%.%.%.%.%.%.%.%.%.6.6.$.V y 2 & + o X . . .                                         ",
"                                        %.%.%.%.%.%.%.%.%.%.%.6.6.+.V r > # . . . . . .                                         ",
"                                        %.%.%.%.%.%.%.%.%.%.%.6.6.+.B q ; O . . . . . .                                         "
};
