/* XPM */
static char *frame_r0_c2[] = {
/* columns rows colors chars-per-pixel */
"32 32 8 1 ",
"  c None",
". c #0E0D0E",
"X c #0A7030",
"o c #7C776F",
"O c #D2202C",
"+ c #EBA724",
"@ c #B3AAA1",
"# c #EADFD1",
/* pixels */
"                                ",
"                                ",
"                                ",
"                                ",
"                                ",
"                                ",
"                                ",
"                                ",
"                                ",
"                                ",
"         ...                    ",
"         .O......               ",
"         ..OOOOO..              ",
"          ...OOOO.              ",
"           ...OO.....           ",
"           .###ooooo.           ",
"           .#.........          ",
"           .o.###@@@@.          ",
"           .o.#.@.@.@.          ",
"           .o.@.@.@.@.          ",
"           .o.@.@.@.@.          ",
"           .o.@@@@@@@.          ",
"          ............          ",
"          .XXX++++++.           ",
"         ..XXX+......           ",
"         .XXXX+.oooo.           ",
"         .+++++.oooo.           ",
"         ............           ",
"                                ",
"                                ",
"                                ",
"                                "
};
