/* XPM */
static char *moving_left_r3_c4[] = {
/* columns rows colors chars-per-pixel */
"32 32 8 1 ",
"  c None",
". c #0E0D0E",
"X c #0A7030",
"o c #7C776F",
"O c #D2202C",
"+ c #EBA724",
"@ c #B3AAA1",
"# c #EADFD1",
/* pixels */
"                                ",
"                                ",
"                                ",
"                                ",
"                                ",
"                                ",
"                                ",
"                                ",
"                                ",
"                                ",
"               .......          ",
"              ..OOOOO..         ",
"              .OOOO..O.         ",
"           .....OO.....         ",
"           .ooooo###.           ",
"          .........#.           ",
"          .@@@@###.o.           ",
"          .@.@.@.#.o.           ",
"          .@.@.@.@.o.           ",
"          .@.@.@.@.o.           ",
"          .@@@@@@@.o.           ",
"          ............          ",
"           .++++++XXX...        ",
"          .......+XXXXX.        ",
"          .@oooo.++XXXX.        ",
"          .@@@oo..+++++.        ",
"          ..............        ",
"                   ...          ",
"                                ",
"                                ",
"                                ",
"                                "
};
